<svg width="55" height="55" viewBox="0 0 55 55" fill="none" xmlns="http://www.w3.org/2000/svg">
<g clip-path="url(#clip0)">
<path d="M48.8697 21.331C47.1326 21.331 45.6041 22.062 44.4789 23.201C40.3424 20.2952 34.7645 18.4252 28.5839 18.2258L31.7945 3.54537L42.0176 5.8737C42.0176 8.41287 44.0572 10.4868 46.5597 10.4868C49.1103 10.4868 51.1614 8.35787 51.1614 5.81641C51.1614 3.27495 49.1241 1.146 46.562 1.146C44.7768 1.146 43.2368 2.23912 42.4691 3.73329L31.178 1.19412C30.6097 1.04058 30.0528 1.45308 29.9016 2.03058L26.377 18.2143C20.2445 18.4733 14.7262 20.341 10.576 23.2491C9.45075 22.062 7.86262 21.331 6.12554 21.331C-0.318628 21.331 -2.42925 30.1058 3.47179 33.1056C3.26325 34.0337 3.16929 35.0237 3.16929 36.0114C3.16929 45.8679 14.112 53.8543 27.548 53.8543C41.0414 53.8543 51.9841 45.8679 51.9841 36.0114C51.9841 35.0237 51.881 33.9879 51.6266 33.0575C57.4085 30.0462 55.2795 21.3356 48.8697 21.331V21.331ZM12.8355 33.7289C12.8355 31.1416 14.8751 29.0585 17.4372 29.0585C19.9397 29.0585 21.9816 31.1279 21.9816 33.7289C21.9816 36.2704 19.942 38.342 17.4372 38.342C14.8866 38.3535 12.8355 36.2704 12.8355 33.7289V33.7289ZM37.6749 44.7243C33.456 49.0052 21.5507 49.0052 17.3295 44.7243C16.8643 44.3118 16.8643 43.5831 17.3295 43.1133C17.7351 42.7008 18.4547 42.7008 18.8603 43.1133C22.0824 46.466 32.7707 46.5233 36.1326 43.1133C36.5382 42.7008 37.2578 42.7008 37.6635 43.1133C38.1378 43.5854 38.1378 44.3141 37.6749 44.7243V44.7243ZM37.581 38.3512C35.0785 38.3512 33.0389 36.2818 33.0389 33.7427C33.0389 31.1554 35.0785 29.0722 37.581 29.0722C40.1316 29.0722 42.1826 31.1416 42.1826 33.7427C42.1712 36.2704 40.1316 38.3512 37.581 38.3512Z" fill="white"/>
</g>
<defs>
<clipPath id="clip0">
<rect width="55" height="55" fill="white"/>
</clipPath>
</defs>
</svg>
