<svg width="149" height="116" viewBox="0 0 149 116" fill="none" xmlns="http://www.w3.org/2000/svg">
<g clip-path="url(#clip0)">
<path opacity="0.1" d="M52.2668 113.753C66.6212 113.753 78.2578 111.56 78.2578 108.854C78.2578 106.148 66.6212 103.955 52.2668 103.955C37.9124 103.955 26.2759 106.148 26.2759 108.854C26.2759 111.56 37.9124 113.753 52.2668 113.753Z" fill="#A2BD30"/>
<path opacity="0.1" d="M86.5697 16.3594C77.0175 16.0305 67.92 12.9613 59.2327 9.60437C50.5454 6.24742 41.9408 2.52921 32.6175 0.750878C26.6208 -0.393072 19.7622 -0.556074 14.9315 2.63935C10.2809 5.72317 8.7784 11.0317 7.97107 15.9614C7.36299 19.6708 7.00582 23.5755 8.67066 27.0485C9.82778 29.4598 11.8793 31.4863 13.2991 33.7962C18.239 41.8317 14.747 51.7411 9.39533 59.5872C6.88627 63.2672 3.97133 66.7828 2.03345 70.6963C0.0955647 74.6098 -0.800318 79.1092 0.895513 83.1123C2.57511 87.0772 6.57928 90.0494 10.917 92.142C19.7268 96.3933 30.104 97.6092 40.2302 98.2994C62.6391 99.8237 85.1661 99.1643 107.634 98.502C115.949 98.2583 124.3 98.0101 132.48 96.731C137.023 96.0203 141.712 94.8925 145.01 92.1699C149.196 88.7146 150.233 82.8641 147.428 78.5321C142.723 71.2631 129.717 69.4583 126.424 61.6592C124.614 57.3654 126.473 52.584 129.104 48.6029C134.748 40.0607 144.207 32.5671 144.705 22.8046C145.047 16.0995 140.5 9.3841 133.469 6.2107C126.099 2.88459 115.879 3.3031 110.444 8.80845C104.843 14.4709 95.0046 16.6516 86.5697 16.3594Z" fill="#A2BD30"/>
<path d="M78.9795 53.121L74.4588 50.0885L76.7391 46.711L64.7989 45.7638L60.5084 49.065L55.1375 46.0693L50.6581 46.6053L50.6049 45.4305C50.5495 44.2058 50.4258 42.9851 50.2345 41.774C50.2537 41.4068 50.267 40.9854 50.2655 40.5272C50.2655 38.5962 50.0028 36.0366 48.8486 34.3302L49.1143 31.9542L46.9594 29.4211C47.3055 28.7352 47.7 28.0747 48.1402 27.4445C48.2139 27.3388 48.2877 27.236 48.3674 27.1361C51.1643 26.9349 53.3708 24.647 53.3708 21.8496C53.3708 21.7203 53.3708 21.5911 53.3561 21.4634C53.3561 21.412 53.3457 21.3591 53.3398 21.3077C53.6129 21.4545 53.8889 21.6014 54.1649 21.7482C54.2165 21.8217 54.2756 21.8951 54.3405 21.9817L54.3538 21.9979L54.4364 22.0992L54.463 22.1301C54.4925 22.1653 54.5235 22.1991 54.5545 22.2343L54.5752 22.2578C54.6534 22.3445 54.736 22.4326 54.8246 22.5192C54.8351 22.5277 54.845 22.5371 54.8541 22.5471L54.9648 22.6499L54.9958 22.6778C55.0903 22.7615 55.1906 22.8423 55.291 22.9186L55.3235 22.9421L55.4504 23.0288L55.4917 23.0552C55.5404 23.0846 55.5906 23.1154 55.6393 23.1433L55.657 23.1536C55.7146 23.1844 55.7736 23.2138 55.8326 23.2417L55.8622 23.2534C55.9123 23.275 55.9615 23.2955 56.0098 23.3151L56.0555 23.3313C56.1072 23.3489 56.1573 23.365 56.2105 23.3797L56.243 23.3885C56.3079 23.4047 56.3728 23.4179 56.4393 23.4282H56.4466C56.5092 23.4383 56.5723 23.4446 56.6355 23.4473H56.6784C56.7349 23.4502 56.7915 23.4502 56.8481 23.4473H56.885C56.9558 23.4432 57.0263 23.4349 57.096 23.4223C57.4263 23.3791 57.7433 23.2659 58.0259 23.0904C58.0978 23.0426 58.1616 22.9836 58.2148 22.9157C58.51 22.5309 58.1853 22.1095 58.1853 22.1095C58.0701 21.8364 57.3233 21.644 57.3233 21.644C57.3233 21.644 54.9619 20.663 54.9619 19.8818C54.9619 19.1006 54.3715 15.0476 48.2774 14.1209C48.2774 14.1209 44.3131 13.8992 43.1988 16.0109L43.1752 16.2576C42.8475 16.4617 42.5759 16.8714 42.2527 16.9918C42.1131 17.0217 41.9784 17.0711 41.8527 17.1387V17.1108C41.8154 17.1432 41.7848 17.1826 41.7627 17.2268C41.6933 17.3642 41.6516 17.5139 41.6402 17.6673C41.6069 17.8547 41.5415 18.035 41.4469 18.2004C41.4205 18.2474 41.3909 18.2925 41.3583 18.3355V18.3355L41.3332 18.3751C41.5046 18.3884 41.6766 18.3607 41.835 18.2944C41.8101 18.4954 41.7605 18.6927 41.6874 18.8818C41.7813 18.8848 41.874 18.8609 41.9546 18.813C42.0352 18.7651 42.1002 18.6952 42.142 18.6116V18.5998L42.1612 18.5734C42.1983 18.5054 42.229 18.4341 42.2527 18.3605L42.2365 18.3781C42.266 18.2826 42.2926 18.1857 42.325 18.0917C42.3399 18.0388 42.3644 17.989 42.3973 17.9449C42.4367 17.9054 42.4849 17.8756 42.538 17.858C42.591 17.8404 42.6475 17.8355 42.7029 17.8435L42.6423 19.1167H42.6689C42.6334 19.2093 42.5899 19.2987 42.539 19.384C42.3295 19.7217 41.9487 19.9523 41.8085 20.3223C41.748 20.5008 41.7249 20.6897 41.7406 20.8774C41.7406 20.9876 41.7538 21.0992 41.7627 21.2093V21.2005C41.7834 21.4942 41.7893 21.7732 41.6299 22.0096C41.5207 22.1712 41.345 22.2931 41.2845 22.4766C41.2678 22.5278 41.2603 22.5815 41.2624 22.6352C41.2742 22.7961 41.308 22.9547 41.3627 23.1066C41.3634 23.1037 41.3634 23.1007 41.3627 23.0978C41.3995 23.2095 41.4082 23.3285 41.3878 23.4443C41.3214 23.738 40.9628 23.9833 40.9805 24.2638C40.9795 24.3006 40.9849 24.3374 40.9967 24.3724C41.0657 24.5094 41.1852 24.6146 41.3303 24.6661C41.5578 24.7949 41.8192 24.8522 42.08 24.8306C42.1778 24.813 42.2723 24.7808 42.3604 24.7351C42.2571 24.9716 42.1509 25.2051 42.0431 25.4268C42.0269 25.462 42.0092 25.4973 41.9915 25.5325C41.9915 25.5325 41.0793 24.926 40.5613 26.1625C40.4101 26.4195 40.3019 26.6992 40.241 26.9907C40.2151 27.1074 40.1785 27.2214 40.1318 27.3314C39.9018 27.7188 39.5576 28.0264 39.1459 28.2125C38.0891 28.6942 33.8208 33.991 33.7455 35.3626C33.7086 35.898 33.6176 36.4283 33.4739 36.9456C33.1379 38.1638 33.0516 39.4367 33.2201 40.6888C33.2728 41.0934 33.3602 41.4928 33.4813 41.8826C33.9344 43.2527 34.237 45.8094 34.237 45.8094L34.727 50.2471C34.7088 50.8596 34.7354 51.4726 34.8067 52.0813C34.3064 52.6496 32.2976 55.0182 33.0651 55.6629C33.6555 56.171 34.6886 56.0873 35.2687 55.983C34.7801 57.1857 34.0112 59.2768 33.9093 60.713C33.7617 62.8379 34.1617 65.653 34.7949 66.7338C35.4281 67.8146 37.5386 70.5871 37.5386 70.5871C37.5386 70.5871 37.4397 74.3905 38.1939 75.7723C38.9481 77.1542 39.2522 80.0207 39.2522 80.0207C39.2522 80.0207 39.9562 82.4407 39.6034 83.3306C39.2507 84.2205 40.2573 84.9606 39.2005 85.5524C38.1437 86.1442 36.7918 99.4825 36.7918 99.4825C36.7918 99.4825 36.2472 108.224 36.7918 108.669C36.8209 108.69 36.8521 108.709 36.8848 108.724V111.661C36.8848 111.661 36.5069 112.277 38.0434 112.402C39.0957 112.486 42.0786 112.675 43.8482 112.785L45.2193 112.871C45.2193 112.871 48.4663 113.514 49.9009 112.871C51.3355 112.227 53.8785 112.242 53.5007 110.543C53.4506 110.312 53.3835 110.085 53.3 109.863C52.8852 108.809 52.1812 108.688 50.8839 108.395C50.8086 108.379 50.7363 108.364 50.6699 108.352C49.3032 108.116 48.8545 108.749 48.0885 107.925C47.4229 107.213 45.3034 106.415 44.5817 106.163C44.5994 106.11 44.6216 106.058 44.6393 106.004C44.4349 105.97 44.2448 105.877 44.0917 105.738L46.0473 105.862L47.2118 105.934C47.2118 105.934 49.9718 106.481 51.1968 105.934C52.4218 105.386 54.5766 105.4 54.2549 103.957C54.2125 103.76 54.1558 103.567 54.0852 103.378C53.7324 102.483 53.1332 102.384 52.0307 102.136C51.9672 102.123 51.9082 102.11 51.8491 102.099C50.6876 101.898 50.3068 102.436 49.6559 101.737C49.098 101.14 47.3373 100.472 46.7041 100.245C46.7041 99.9186 46.2613 99.4546 45.9824 98.9891C45.6547 98.4457 46.2598 96.544 46.2598 96.544L46.6052 88.6539C46.7367 88.5956 46.8758 88.556 47.0185 88.5364C47.0185 88.5364 48.58 87.0532 48.2272 85.4731C48.1554 84.9952 48.1179 84.5128 48.1151 84.0296C48.6287 83.5553 49.3356 82.8548 49.5364 82.4231C49.864 81.7197 49.5364 78.3113 49.5364 78.3113V65.2785L52.1488 65.5414L54.5191 65.7837L55.2408 65.8571L57.6111 66.095L63.0588 66.6428L67.9677 65.7176L70.0915 65.3182L74.4588 64.4958V53.864L78.9795 53.121ZM43.0246 17.8905L42.7206 17.8582C42.8209 17.8626 42.9272 17.8817 43.0246 17.8905Z" fill="url(#paint0_linear)"/>
<path d="M68.3837 60.0244C66.9078 62.1258 61.6019 61.0127 61.6019 61.0127L57.49 57.1844L56.9365 56.666L57.8649 54.7041C57.8649 54.7041 58.1601 54.7849 58.6663 54.9288C61.3244 55.6968 69.6294 58.2578 68.3837 60.0244Z" fill="#EFB7B9"/>
<path opacity="0.1" d="M58.6634 54.9288C58.4818 55.5573 57.9844 56.4986 57.49 57.1844L56.9365 56.666L57.8649 54.7041C57.8649 54.7041 58.163 54.7849 58.6634 54.9288Z" fill="black"/>
<path d="M44.561 32.8044C44.561 32.8044 40.7709 34.477 40.9568 38.5843C41.0906 41.2305 41.3804 43.8665 41.8247 46.4789C41.8247 46.4789 41.0498 52.6598 44.2762 54.2531C47.5025 55.8464 50.4883 57.1563 50.4883 57.1563C50.4883 57.1563 55.536 57.6967 56.1632 57.9199C56.7905 58.1431 58.7505 54.7303 58.3889 54.1987C58.0273 53.6671 53.3944 52.5526 52.804 51.6656C52.2137 50.7786 50.8484 50.2309 50.8484 50.2309C50.8484 50.2309 49.4389 49.3821 49.343 48.6156C49.2471 47.849 49.619 47.2778 49.7135 46.9415C49.8079 46.6052 50.047 43.3584 50.047 43.3584C50.047 43.3584 51.6381 31.8014 44.561 32.8044Z" fill="#DCE6F2"/>
<path opacity="0.1" d="M47.0627 46.3101C47.0627 46.3101 41.8631 47.1765 42.3663 48.9871C42.3663 48.9871 44.2541 47.0326 47.0627 46.3101Z" fill="black"/>
<path opacity="0.1" d="M47.1025 47.043C47.1025 47.043 44.2436 49.3646 44.803 49.4836C45.3624 49.6025 47.1025 47.043 47.1025 47.043Z" fill="black"/>
<path opacity="0.1" d="M48.4765 47.8525C48.4765 47.8525 47.7105 49.4135 48.1813 49.3078C48.6521 49.2021 48.4765 47.8525 48.4765 47.8525Z" fill="black"/>
<path opacity="0.1" d="M58.8552 55.0946L58.5394 55.005C58.6294 54.7113 58.6545 54.4734 58.5807 54.3633C58.2191 53.8317 53.5892 52.7186 53.0003 51.8302C52.4114 50.9417 51.0447 50.3954 51.0447 50.3954C51.0447 50.3954 49.6352 49.5467 49.5392 48.7801C49.4433 48.0136 49.8152 47.4423 49.9097 47.106C50.0041 46.7698 50.2432 43.5215 50.2432 43.5215C50.2432 43.5215 51.8299 31.966 44.7528 32.9689C44.7528 32.9689 40.9627 34.643 41.1471 38.7504C41.281 41.3966 41.5713 44.0327 42.0165 46.6449C42.0165 46.6449 41.2416 52.8258 44.468 54.4191C47.6943 56.0124 50.6801 57.3223 50.6801 57.3223C50.6801 57.3223 55.7263 57.8612 56.355 58.0859C56.5926 58.1711 57.0221 57.732 57.4428 57.1284L57.6819 57.3502L61.7938 61.1771C61.7938 61.1771 67.0997 62.2916 68.5756 60.1902C69.8228 58.4222 61.5193 55.8611 58.8552 55.0946Z" fill="black"/>
<path d="M42.3795 17.388C42.235 17.4161 42.0966 17.4693 41.9706 17.5452C41.8231 17.667 41.8231 17.8756 41.7862 18.0577C41.7428 18.311 41.6418 18.5511 41.491 18.7596C41.6589 18.7719 41.8274 18.7442 41.9824 18.6788C41.9572 18.8798 41.9076 19.077 41.8349 19.2662C41.9268 19.2685 42.0175 19.2444 42.096 19.1968C42.1746 19.1491 42.2376 19.0799 42.2776 18.9975C42.3557 18.832 42.4175 18.6594 42.4621 18.4821C42.476 18.429 42.5 18.3791 42.533 18.3352C42.6688 18.1751 42.9211 18.2471 43.1307 18.2677C43.3051 18.2823 43.4803 18.2502 43.6381 18.1748C43.7959 18.0995 43.9305 17.9834 44.0281 17.8389C44.251 17.5026 44.2642 16.642 43.7329 16.551C43.178 16.4599 42.8326 17.2206 42.3795 17.388Z" fill="#965D7B"/>
<g opacity="0.1">
<path opacity="0.1" d="M41.9559 17.7256C41.9691 17.6537 41.978 17.5788 41.9942 17.5068C41.854 17.6287 41.8466 17.8358 41.8097 18.0193C41.7911 18.1252 41.762 18.229 41.7227 18.3292C41.8389 18.1449 41.9181 17.9399 41.9559 17.7256V17.7256Z" fill="black"/>
<path opacity="0.1" d="M42.0032 18.9385C42.0767 18.7495 42.1263 18.5522 42.1508 18.3511C42.003 18.413 41.843 18.4406 41.6829 18.4318C41.6363 18.5351 41.5795 18.6335 41.5132 18.7255C41.6805 18.7384 41.8486 18.7112 42.0032 18.6462C41.9787 18.8474 41.9291 19.0447 41.8556 19.2336C41.9475 19.2358 42.0381 19.2116 42.1166 19.1639C42.1951 19.1163 42.2582 19.0472 42.2984 18.9649C42.3351 18.8982 42.3648 18.8278 42.3869 18.7549C42.3436 18.8151 42.2858 18.8635 42.2187 18.8956C42.1516 18.9277 42.0775 18.9424 42.0032 18.9385V18.9385Z" fill="black"/>
<path opacity="0.1" d="M43.299 17.9399C43.0894 17.9193 42.8356 17.8473 42.6998 18.0074C42.6674 18.0517 42.6434 18.1015 42.6289 18.1543C42.6156 18.1924 42.6038 18.2321 42.5935 18.2717C42.7337 18.1616 42.961 18.2203 43.1514 18.2394C43.3258 18.2536 43.5008 18.2214 43.6585 18.146C43.8162 18.0706 43.9509 17.9549 44.0488 17.8106C44.0935 17.7393 44.1269 17.6616 44.1476 17.5801C44.0466 17.7046 43.9163 17.8024 43.7684 17.8652C43.6204 17.9279 43.4592 17.9535 43.299 17.9399Z" fill="black"/>
</g>
<path d="M46.8221 29.5166L49.0729 32.2098L48.7792 34.928L46.0591 30.6914L46.8221 29.5166Z" fill="#DCE6F2"/>
<path opacity="0.1" d="M49.0714 32.2098L48.7954 34.7664L48.7777 34.928L46.3233 31.104L46.0591 30.6914L46.1358 30.5724L46.8207 29.5166L46.9727 29.6987L49.0714 32.2098Z" fill="black"/>
<path d="M50.2402 25.8702C49.4786 26.0875 48.751 26.8335 48.1178 27.7395C47.6899 28.3647 47.3071 29.0193 46.9725 29.6985C46.7644 30.1126 46.5814 30.5106 46.4294 30.8571L46.3231 31.1038C46.0663 31.7074 45.9231 32.1112 45.9231 32.1112C45.9231 32.1112 40.0933 27.7498 41.0157 27.4561C41.3257 27.3577 41.733 26.6969 42.1359 25.8643L42.1861 25.7586C42.4414 25.224 42.6924 24.6278 42.9152 24.0669C43.3713 22.9141 43.7093 21.9126 43.7093 21.9126C43.7093 21.9126 52.5648 25.2093 50.2402 25.8702Z" fill="#EFB7B9"/>
<path d="M53.7278 21.6675C53.7278 21.6675 55.0738 24.0905 56.8818 23.7601C58.6898 23.4297 57.946 22.459 57.946 22.459L53.7278 21.6675Z" fill="#444053"/>
<path d="M51.1199 105.54C49.9274 106.082 47.2309 105.54 47.2309 105.54L46.0944 105.47C44.6185 105.376 42.1478 105.217 41.274 105.146C39.9988 105.042 40.3117 104.522 40.3117 104.522V101.381L46.4988 99.8218C46.4988 99.8218 48.9444 100.654 49.6145 101.381C50.2506 102.074 50.6225 101.541 51.7575 101.741C51.8136 101.751 51.8726 101.763 51.9346 101.778C53.012 102.023 53.5965 102.12 53.9419 103.008C54.0113 103.195 54.067 103.386 54.1086 103.581C54.4274 105.011 52.311 105.001 51.1199 105.54Z" fill="#A36468"/>
<path opacity="0.1" d="M53.9419 103.009C53.7202 103.146 53.4871 103.265 53.2452 103.364C52.4335 103.732 51.6616 104.182 50.841 104.53C50.0203 104.878 49.1363 105.126 48.2478 105.06C47.7829 105.026 47.3076 104.913 46.8634 105.045C46.5886 105.151 46.3298 105.294 46.0944 105.47C44.6185 105.376 42.1478 105.217 41.274 105.147C39.9988 105.042 40.3117 104.523 40.3117 104.523V104.155C40.3575 104.155 40.4092 104.142 40.4682 104.138C40.7736 104.133 41.0778 104.178 41.3685 104.271C42.009 104.445 42.6466 104.615 43.2872 104.785C43.3399 104.588 43.4325 104.402 43.5593 104.241C43.6862 104.08 43.8447 103.947 44.0252 103.848C44.3908 103.655 44.8011 103.562 45.2147 103.577C46.208 103.59 47.1482 104.058 48.14 104.105C48.4173 104.131 48.6965 104.084 48.9503 103.97C49.0861 103.903 49.2056 103.804 49.3385 103.73C49.5511 103.627 49.7757 103.552 50.0071 103.505C50.6575 103.344 51.2961 103.139 51.9184 102.891C52.0955 102.822 52.3021 102.697 52.2785 102.509C52.2475 102.26 51.8534 102.23 51.7501 102.001C51.7319 101.96 51.7235 101.915 51.7255 101.87C51.7276 101.825 51.74 101.781 51.7619 101.741C51.818 101.751 51.8771 101.763 51.939 101.778C53.012 102.023 53.5965 102.12 53.9419 103.009Z" fill="black"/>
<path d="M49.8596 112.413C48.4575 113.05 45.2843 112.413 45.2843 112.413L43.9486 112.335C42.2188 112.225 39.3053 112.041 38.2766 111.955C36.7756 111.831 37.1446 111.22 37.1446 111.22V107.518L44.4253 105.683C44.4253 105.683 47.3033 106.662 48.0915 107.518C48.8398 108.333 49.2722 107.706 50.6138 107.941C50.6802 107.953 50.7496 107.968 50.8219 107.984C52.0897 108.277 52.7775 108.388 53.1834 109.433C53.2656 109.653 53.3312 109.878 53.3797 110.107C53.7457 111.79 51.2617 111.777 49.8596 112.413Z" fill="#A36468"/>
<path opacity="0.1" d="M53.1804 109.433C52.9197 109.595 52.6456 109.735 52.3613 109.851C51.4064 110.285 50.4972 110.813 49.532 111.223C48.5667 111.633 47.5262 111.923 46.4798 111.847C45.9337 111.807 45.3743 111.671 44.8563 111.829C44.5317 111.955 44.2262 112.125 43.9486 112.335C42.2188 112.224 39.3053 112.041 38.2766 111.954C36.7756 111.831 37.1446 111.22 37.1446 111.22V110.788C37.2057 110.778 37.2673 110.772 37.3291 110.768C37.6886 110.761 38.0468 110.814 38.3888 110.925L40.6455 111.53C40.7083 111.297 40.8184 111.078 40.9688 110.889C41.1193 110.699 41.3071 110.542 41.5207 110.427C41.9509 110.199 42.4342 110.088 42.9213 110.107C44.0903 110.123 45.1957 110.674 46.3632 110.73C46.6883 110.759 47.0156 110.705 47.3137 110.572C47.4745 110.492 47.6089 110.376 47.7712 110.289C48.0208 110.167 48.2853 110.079 48.5579 110.025C49.319 109.834 50.0665 109.592 50.7954 109.302C51.0035 109.22 51.247 109.073 51.219 108.853C51.1821 108.559 50.7186 108.524 50.5961 108.254C50.5755 108.205 50.5661 108.152 50.5686 108.099C50.5712 108.046 50.5856 107.995 50.6109 107.948C50.6773 107.96 50.7467 107.975 50.819 107.991C52.0868 108.273 52.7746 108.387 53.1804 109.433Z" fill="black"/>
<path d="M46.6862 87.0093L46.2921 96.2358C46.2921 96.2358 45.7018 98.1198 46.022 98.6588C46.3423 99.1977 46.8825 99.7352 46.6862 100.054C46.4899 100.372 44.1284 103.818 43.3654 102.496C42.6023 101.174 41.8496 95.4472 41.8496 95.4472L42.5536 88.3735L46.6862 87.0093Z" fill="#444053"/>
<path d="M48.3955 64.0215L49.4907 65.4782V78.1483C49.4907 78.1483 49.8109 81.5258 49.4907 82.2234C49.1704 82.9209 47.5469 84.316 47.5469 84.316L46.1816 77.3407L46.4768 69.9615L48.3955 64.0215Z" fill="#444053"/>
<path opacity="0.1" d="M46.6862 87.0093L46.2921 96.2358C46.2921 96.2358 45.7018 98.1198 46.022 98.6588C46.3423 99.1977 46.8825 99.7352 46.6862 100.054C46.4899 100.372 44.1284 103.818 43.3654 102.496C42.6023 101.174 41.8496 95.4472 41.8496 95.4472L42.5536 88.3735L46.6862 87.0093Z" fill="black"/>
<path opacity="0.1" d="M48.3955 64.0215L49.4907 65.4782V78.1483C49.4907 78.1483 49.8109 81.5258 49.4907 82.2234C49.1704 82.9209 47.5469 84.316 47.5469 84.316L46.1816 77.3407L46.4768 69.9615L48.3955 64.0215Z" fill="black"/>
<path d="M49.4906 58.6176V65.471L48.2612 70.806C48.2612 70.806 47.8671 83.6803 48.211 85.2457C48.5549 86.8111 47.0303 88.281 47.0303 88.281C47.0303 88.281 46.1447 88.3794 46.1447 89.0637C46.1447 89.748 44.6688 91.707 44.6688 91.707L44.7175 95.525C44.7175 95.525 45.3581 102.672 44.3736 104.042C43.3892 105.412 44.7175 105.609 44.7175 105.609C43.4881 109.622 37.5844 108.693 37.0516 108.252C36.5188 107.812 37.0516 99.1478 37.0516 99.1478C37.0516 99.1478 38.371 85.9314 39.4042 85.344C40.4373 84.7566 39.4544 84.0224 39.7983 83.1413C40.1421 82.2602 39.4544 79.8622 39.4544 79.8622C39.4544 79.8622 39.1592 77.0221 38.4212 75.652C37.6833 74.2819 37.7807 70.5123 37.7807 70.5123C37.7807 70.5123 35.7144 67.7707 35.1004 66.6943C34.4864 65.6179 34.0909 62.8278 34.2385 60.722C34.3388 59.299 35.0901 57.227 35.5668 56.0346C35.7956 55.4633 35.9609 55.0933 35.9609 55.0933L36.1011 55.13L44.1626 57.2299L49.4906 58.6176Z" fill="#444053"/>
<path opacity="0.1" d="M50.2403 25.8707C49.4787 26.088 48.7511 26.834 48.1179 27.7401H47.9526C47.0245 27.7407 46.1127 27.4976 45.3093 27.0353C44.506 26.5729 43.8395 25.9078 43.3773 25.1071C43.1841 24.7753 43.0287 24.4231 42.9138 24.0571C43.3699 22.9043 43.7079 21.9028 43.7079 21.9028C43.7079 21.9028 52.5649 25.2099 50.2403 25.8707Z" fill="black"/>
<path d="M53.2291 22.1991C53.2304 23.0026 53.0463 23.7957 52.6911 24.5172C52.3358 25.2388 51.8188 25.8696 51.1799 26.361C50.5409 26.8524 49.7972 27.1914 49.0059 27.3518C48.2146 27.5122 47.3968 27.4897 46.6156 27.2861C45.8344 27.0825 45.1106 26.7031 44.4999 26.1773C43.8893 25.6516 43.4081 24.9933 43.0934 24.2533C42.7787 23.5134 42.6389 22.7114 42.6848 21.9092C42.7307 21.107 42.9611 20.326 43.3581 19.6263C43.5181 19.342 43.7049 19.0736 43.916 18.8245C44.2641 18.412 44.6732 18.0545 45.1292 17.7643C45.8996 17.2772 46.7838 16.9973 47.6954 16.9519C48.607 16.9065 49.5148 17.0971 50.3302 17.5052C51.1456 17.9133 51.8407 18.5249 52.3475 19.2801C52.8543 20.0354 53.1555 20.9086 53.2217 21.8144C53.2247 21.9436 53.2291 22.0713 53.2291 22.1991Z" fill="#EFB7B9"/>
<path opacity="0.1" d="M48.7953 34.7665L48.7776 34.928L46.3231 31.1099C46.0663 31.7135 45.9231 32.1173 45.9231 32.1173C45.9231 32.1173 40.0933 27.7501 41.0157 27.4564C41.3257 27.358 41.733 26.6971 42.1359 25.8645L42.1861 25.7588C42.6141 27.0276 45.1011 29.5636 46.1357 30.5798C46.2552 30.6973 46.3541 30.7942 46.4309 30.8647L46.5888 31.0116L46.6714 31.0938C47.0478 31.48 48.6359 33.1834 48.7953 34.7665Z" fill="black"/>
<path d="M50.63 47.7211L50.3613 56.322L50.3141 57.8537C50.3141 57.8537 47.132 57.56 44.1625 57.2369C41.7715 56.977 39.5178 56.6965 39.1709 56.532C38.7281 56.325 37.7791 56.1649 37.0308 56.0636C36.4523 55.9858 35.9977 55.9446 35.9977 55.9446C35.9977 55.9446 35.828 55.9946 35.5667 56.0416C34.997 56.1444 33.9963 56.2281 33.4134 55.7244C32.668 55.0797 34.6266 52.7375 35.1151 52.175L35.2228 52.0532L35.0383 50.3571L34.5587 45.9589C34.5587 45.9589 34.2635 43.4258 33.8207 42.0675C33.7023 41.6813 33.6169 41.2858 33.5654 40.8853C33.4009 39.6447 33.4851 38.384 33.8133 37.1759C33.9535 36.6626 34.0425 36.1368 34.079 35.6061C34.1528 34.2478 38.3223 28.998 39.3554 28.5207C39.8202 28.3051 40.1941 27.934 40.4122 27.4722C40.4841 27.327 40.5382 27.1736 40.573 27.0155C41.0158 25.1065 42.136 25.8642 42.136 25.8642C42.4061 27.3577 46.5874 31.3108 46.5874 31.3108L46.6701 31.3931C47.0848 31.816 48.9327 33.8014 48.8013 35.496C48.775 36.1267 48.8697 36.7567 49.0802 37.3522C49.9307 40.0167 50.4197 42.7823 50.534 45.5757L50.63 47.7211Z" fill="#DCE6F2"/>
<path opacity="0.1" d="M44.7056 37.5083C44.7056 37.5083 43.6724 40.0047 42.8976 40.4086C42.1227 40.8124 45.0746 41.2603 44.7056 37.5083Z" fill="black"/>
<path opacity="0.1" d="M45.4804 42.1704C45.4804 42.1704 43.1189 42.4641 43.1189 42.9047C43.1189 43.3452 45.4804 42.1704 45.4804 42.1704Z" fill="black"/>
<path opacity="0.1" d="M47.9526 45.0342C47.9526 45.0342 44.521 52.3032 43.5617 52.5234C42.6023 52.7437 47.9526 45.0342 47.9526 45.0342Z" fill="black"/>
<path opacity="0.1" d="M46.5223 31.6797L43.6842 32.9073L40.2585 27.7588C40.3305 27.6136 40.3845 27.4603 40.4194 27.3021C40.8622 25.3931 41.9824 26.1508 41.9824 26.1508C42.2525 27.6443 46.4338 31.5974 46.4338 31.5974L46.5223 31.6797Z" fill="black"/>
<path d="M46.6701 31.3857L43.8319 32.6134L40.4062 27.4649C40.4782 27.3197 40.5322 27.1663 40.5671 27.0082C41.0099 25.0992 42.1301 25.8569 42.1301 25.8569C42.4002 27.3503 46.5815 31.3035 46.5815 31.3035L46.6701 31.3857Z" fill="#DCE6F2"/>
<path opacity="0.1" d="M50.3142 57.8542C50.3142 57.8542 47.1321 57.5605 44.1626 57.2375L49.4906 58.6252V60.2405C49.2575 60.4505 49.0553 60.5592 48.9239 60.5034C48.3099 60.2464 43.2992 59.4387 43.2992 59.4387C43.2992 59.4387 40.3887 57.9702 37.2479 56.2081C37.1717 56.166 37.0978 56.12 37.0265 56.07C36.6603 55.8226 36.3447 55.5082 36.0967 55.1434C35.5166 54.3078 35.2333 53.2344 35.1108 52.1815C35.0419 51.5781 35.0162 50.9705 35.034 50.3635C35.0492 49.6752 35.1124 48.9887 35.2229 48.3091C34.9192 45.6767 34.7713 43.0289 34.7802 40.3793C34.8171 36.2675 38.6913 34.799 38.6913 34.799C45.8127 34.1749 43.6047 45.6291 43.6047 45.6291C43.6047 45.6291 43.1929 48.8598 43.0807 49.1902C42.9686 49.5206 42.5656 50.0713 42.6202 50.8422C42.6749 51.6132 44.0356 52.5354 44.0356 52.5354C44.0356 52.5354 45.364 53.1551 45.9115 54.0729C46.31 54.7498 48.8988 55.6677 50.3614 56.3226L50.3142 57.8542Z" fill="black"/>
<path opacity="0.1" d="M52.6992 18.9388C52.7019 19.1806 52.6515 19.4202 52.5516 19.6407C52.4759 19.8206 52.3882 19.9953 52.2889 20.1635C52.1336 20.4729 51.9131 20.7453 51.6424 20.9623C51.3015 21.2046 50.8705 21.2722 50.4617 21.3706C50.0529 21.469 49.6278 21.6261 49.3946 21.9727C49.2682 22.1954 49.1837 22.4393 49.1452 22.6922C49.1061 22.9449 49.0047 23.1841 48.85 23.3883C48.7695 23.488 48.6579 23.5582 48.5329 23.588C48.4079 23.6178 48.2764 23.6054 48.1593 23.5527C48.0358 23.4699 47.9422 23.3501 47.8921 23.2106C47.7239 22.8332 47.6811 22.4147 47.6132 22.0079C47.5453 21.6011 47.4493 21.1826 47.1984 20.8551C46.9475 20.5277 46.5033 20.3118 46.1092 20.4396C45.9773 20.4901 45.857 20.5666 45.7556 20.6645C45.6541 20.7624 45.5736 20.8797 45.5188 21.0093C45.4098 21.2689 45.3349 21.5413 45.296 21.8199C45.113 22.8165 44.897 23.8073 44.648 24.7921C44.6404 24.8325 44.6238 24.8707 44.5993 24.9037C44.5601 24.9427 44.5071 24.9648 44.4517 24.9654C44.1211 25.0095 43.8038 24.7789 43.4703 24.8039C43.4359 24.8062 43.4018 24.8116 43.3684 24.82C42.8291 23.8875 42.591 22.8125 42.6863 21.7408C42.7816 20.6691 43.2057 19.6525 43.9012 18.8286L43.9278 18.8213C44.1497 18.7429 44.3513 18.6165 44.5182 18.4512C44.7312 18.2391 44.9285 18.0119 45.1085 17.7713L45.2266 17.6245C45.5659 17.2178 45.9523 16.8526 46.3778 16.5363C46.494 16.4416 46.6272 16.3699 46.7704 16.3249C46.893 16.3011 47.0185 16.2971 47.1424 16.3131C47.6521 16.374 48.1659 16.3931 48.6788 16.3704C49.0361 16.3145 49.3963 16.2782 49.7577 16.2617C50.6919 16.2882 51.4889 16.9446 52.0793 17.6641C52.3966 18.0327 52.68 18.4571 52.6992 18.9388Z" fill="black"/>
<path d="M42.6688 19.7659C42.4637 20.1007 42.0932 20.3283 41.9545 20.6954C41.7508 21.2285 42.0947 21.8922 41.7788 22.368C41.674 22.5281 41.5014 22.647 41.4423 22.8306C41.342 23.1405 41.6165 23.4709 41.5456 23.7895C41.4748 24.1082 41.0527 24.3769 41.1648 24.6882C41.2311 24.824 41.3474 24.9292 41.4895 24.9819C41.7132 25.1096 41.9706 25.1664 42.2275 25.1449C42.6304 25.0789 42.93 24.6853 43.3389 24.6559C43.671 24.6324 43.9883 24.8615 44.3189 24.8189C44.3743 24.817 44.427 24.7945 44.4665 24.7558C44.4916 24.7231 44.5083 24.6848 44.5152 24.6442C44.7631 23.6603 44.9796 22.6696 45.1646 21.672C45.2023 21.3933 45.2767 21.1207 45.386 20.8614C45.4412 20.732 45.5219 20.6149 45.6232 20.5171C45.7246 20.4192 45.8447 20.3426 45.9763 20.2916C46.3704 20.1653 46.8132 20.3797 47.0656 20.7072C47.3179 21.0346 47.4139 21.4532 47.4818 21.8599C47.5497 22.2667 47.5925 22.6852 47.7593 23.0626C47.8099 23.2026 47.904 23.3229 48.0279 23.4063C48.2493 23.534 48.5474 23.4327 48.7171 23.2418C48.8726 23.0375 48.9741 22.7977 49.0123 22.5443C49.0508 22.2918 49.1353 22.0484 49.2617 21.8262C49.4949 21.4796 49.9215 21.3225 50.3288 21.2241C50.7362 21.1257 51.1657 21.0567 51.5096 20.8144C51.7798 20.5976 52.0003 20.3257 52.156 20.017C52.3744 19.6381 52.5781 19.2269 52.5604 18.7908C52.5412 18.315 52.2579 17.8906 51.9553 17.5206C51.3649 16.801 50.5664 16.1446 49.6322 16.1196C49.2707 16.1347 48.9105 16.171 48.5533 16.2283C48.0404 16.2512 47.5265 16.2316 47.0169 16.1696C46.8929 16.1548 46.7675 16.1593 46.6449 16.1828C46.5016 16.2263 46.3685 16.2983 46.2538 16.3942C45.8279 16.71 45.4409 17.0747 45.1011 17.4809C44.882 17.77 44.6444 18.0447 44.3897 18.3033C44.2228 18.4688 44.0212 18.5957 43.7994 18.6748C43.6518 18.7159 43.5042 18.6865 43.364 18.7321C42.9286 18.8686 42.871 19.434 42.6688 19.7659Z" fill="#965D7B"/>
<path opacity="0.1" d="M56.8818 23.7586C55.7011 23.9745 54.7225 23.0244 54.1809 22.3312C54.0145 22.1207 53.8631 21.8989 53.7278 21.6675L57.7807 22.4282L57.9445 22.459C57.9445 22.459 58.6898 23.4297 56.8818 23.7586Z" fill="black"/>
<g opacity="0.1">
<path opacity="0.1" d="M41.5457 23.3691C41.5622 23.177 41.5329 22.9838 41.4601 22.8052C41.4601 22.8199 41.4468 22.8345 41.4424 22.8492C41.3789 23.046 41.4645 23.2501 41.5191 23.4542C41.5309 23.4268 41.5398 23.3983 41.5457 23.3691V23.3691Z" fill="black"/>
<path opacity="0.1" d="M41.897 20.9653C41.8818 21.1684 41.8857 21.3724 41.9088 21.5748C41.9239 21.3717 41.92 21.1677 41.897 20.9653Z" fill="black"/>
<path opacity="0.1" d="M52.1473 19.5922C51.9919 19.9016 51.7715 20.174 51.5008 20.391C51.1599 20.6333 50.7304 20.7009 50.3201 20.7993C49.9098 20.8977 49.4862 21.0548 49.253 21.4014C49.1268 21.6242 49.0423 21.868 49.0036 22.1209C48.9651 22.3743 48.8637 22.614 48.7084 22.8185C48.5387 23.0094 48.2405 23.1121 48.0191 22.9829C47.8953 22.8996 47.8012 22.7793 47.7505 22.6393C47.5837 22.2619 47.5395 21.8448 47.473 21.4366C47.4066 21.0284 47.3077 20.6113 47.0568 20.2838C46.8059 19.9564 46.3617 19.7405 45.9676 19.8683C45.8358 19.919 45.7157 19.9956 45.6142 20.0935C45.5128 20.1914 45.4322 20.3085 45.3772 20.438C45.268 20.6974 45.1935 20.9699 45.1558 21.2486C44.9718 22.2462 44.7554 23.237 44.5064 24.2209C44.4995 24.2614 44.4828 24.2997 44.4577 24.3325C44.4182 24.3712 44.3655 24.3937 44.3101 24.3956C43.9795 24.4382 43.6622 24.2091 43.3301 24.2326C42.9213 24.262 42.6217 24.6555 42.2188 24.7201C41.9617 24.7431 41.7039 24.6861 41.4808 24.5571C41.3782 24.5132 41.2862 24.4482 41.2107 24.3662C41.1762 24.4154 41.1533 24.4718 41.1438 24.5311C41.1344 24.5903 41.1386 24.651 41.1561 24.7084C41.2211 24.8451 41.3378 24.9507 41.4808 25.0021C41.7039 25.1311 41.9617 25.188 42.2188 25.1651C42.6217 25.1005 42.9213 24.7069 43.3301 24.6776C43.6622 24.6541 43.9795 24.8831 44.3101 24.8406C44.3655 24.8386 44.4182 24.8161 44.4577 24.7774C44.4828 24.7447 44.4995 24.7064 44.5064 24.6658C44.7544 23.6868 44.9709 22.6961 45.1558 21.6936C45.1935 21.4149 45.268 21.1423 45.3772 20.883C45.4322 20.7535 45.5128 20.6363 45.6142 20.5384C45.7157 20.4405 45.8358 20.364 45.9676 20.3132C46.3617 20.1855 46.8044 20.4013 47.0568 20.7288C47.3092 21.0563 47.4051 21.4748 47.473 21.8816C47.5409 22.2883 47.5837 22.7068 47.7505 23.0842C47.8012 23.2242 47.8953 23.3446 48.0191 23.4279C48.2405 23.5556 48.5387 23.4543 48.7084 23.2634C48.8637 23.059 48.9651 22.8192 49.0036 22.5659C49.0423 22.313 49.1268 22.0692 49.253 21.8463C49.4862 21.4998 49.9127 21.3441 50.3201 21.2442C50.7274 21.1444 51.1569 21.0783 51.5008 20.836C51.7715 20.619 51.9919 20.3465 52.1473 20.0371C52.3657 19.6597 52.5694 19.2486 52.5517 18.8124C52.5488 18.7564 52.5429 18.7005 52.534 18.645C52.4628 18.9811 52.3318 19.3019 52.1473 19.5922V19.5922Z" fill="black"/>
</g>
<path opacity="0.1" d="M52.5576 19.6364C52.9361 20.3059 53.1604 21.0508 53.2144 21.8171C51.8993 21.0828 50.6625 20.2766 50.0382 19.9961C48.9505 19.5071 44.8828 19.5806 43.3538 19.6261C43.5137 19.3418 43.7005 19.0733 43.9117 18.8243C44.2611 18.4114 44.6716 18.0539 45.1293 17.7641C45.7354 17.3813 46.4135 17.1256 47.1223 17.0125C47.8311 16.8995 48.5556 16.9314 49.2515 17.1064C49.9475 17.2813 50.6003 17.5957 51.17 18.0302C51.7397 18.4647 52.2144 19.0102 52.565 19.6334L52.5576 19.6364Z" fill="black"/>
<path opacity="0.1" d="M57.2508 23.136C56.5409 23.3533 55.3823 22.9333 54.1809 22.3312C54.0145 22.1207 53.8631 21.8989 53.7278 21.6675L57.7807 22.4282C58.0493 22.6102 58.1172 22.8702 57.2508 23.136Z" fill="black"/>
<path d="M48.267 14.5452C48.267 14.5452 44.3928 14.325 43.3035 16.4176L43.1279 18.2723L42.8327 18.2399L42.7737 19.5014C42.7737 19.5014 48.6951 19.2444 50.0426 19.8494C51.3901 20.4544 55.5773 23.503 57.2554 22.989C58.9335 22.4751 57.1078 21.9978 57.1078 21.9978C57.1078 21.9978 54.798 21.0242 54.798 20.2606C54.798 19.497 54.2253 15.463 48.267 14.5452Z" fill="#444053"/>
<path opacity="0.1" d="M40.7944 83.2998C40.7944 83.2998 43.2666 85.6861 44.3366 85.5025C44.3366 85.5025 41.311 85.2455 40.7944 83.2998Z" fill="black"/>
<path opacity="0.1" d="M40.2778 84.4058C40.2778 84.4058 40.4992 85.6334 41.0896 85.513C41.68 85.3926 40.2778 84.4058 40.2778 84.4058Z" fill="black"/>
<path opacity="0.1" d="M44.1521 104.923C44.1521 104.923 40.6424 107.64 41.2342 107.713C41.8261 107.787 44.1521 104.923 44.1521 104.923Z" fill="black"/>
<path d="M48.8472 51.0051L60.2118 49.165V59.8703L49.4139 59.3079L48.8472 51.0051Z" fill="#A2BD30"/>
<path opacity="0.05" d="M48.8472 51.0051L60.2118 49.165V59.8703L49.4139 59.3079L48.8472 51.0051Z" fill="black"/>
<path d="M60.2117 49.165L73.8403 50.1798L73.0861 59.4958L60.2117 59.8703V49.165Z" fill="#A2BD30"/>
<path opacity="0.1" d="M60.2117 49.165L73.8403 50.1798L73.0861 59.4958L60.2117 59.8703V49.165Z" fill="black"/>
<path d="M64.4018 45.8975L60.2117 49.1648L73.8403 50.1796L76.0675 46.8358L64.4018 45.8975Z" fill="#A2BD30"/>
<path d="M44.7322 47.4367L54.9632 46.1973L60.2116 49.1651L48.847 51.0051L44.7322 47.4367Z" fill="#A2BD30"/>
<path d="M62.7031 51.9447V66.5811L57.3795 66.0378L55.0637 65.8028L54.3583 65.7294L52.044 65.493L48.8472 65.167V51.0049L60.2103 51.7744L62.7031 51.9447Z" fill="#A2BD30"/>
<path d="M73.8404 50.1797V64.4534L69.5735 65.2684L67.4984 65.6649L62.7031 66.5812V51.9448L73.8404 50.1797Z" fill="#A2BD30"/>
<path opacity="0.05" d="M73.8404 50.1797V64.4534L69.5735 65.2684L67.4984 65.6649L62.7031 66.5812V51.9448L73.8404 50.1797Z" fill="black"/>
<path d="M44.7322 54.0858L48.847 51.0049L62.703 51.9447L60.6632 55.3634L44.7322 54.0858Z" fill="#A2BD30"/>
<path opacity="0.1" d="M44.7322 54.0858L48.847 51.0049L62.703 51.9447L60.6632 55.3634L44.7322 54.0858Z" fill="white"/>
<path d="M73.8404 50.1797L62.7031 51.9448L66.328 55.1755L78.2578 53.1842L73.8404 50.1797Z" fill="#A2BD30"/>
<path opacity="0.1" d="M73.8404 50.1797L62.7031 51.9448L66.328 55.1755L78.2578 53.1842L73.8404 50.1797Z" fill="white"/>
<path opacity="0.1" d="M69.5734 65.2681L67.4983 65.6646V62.6145L69.4421 62.127L69.5734 65.2681Z" fill="white"/>
<path opacity="0.1" d="M57.3794 64.02V66.0377L55.0637 65.8027V64.02H57.3794Z" fill="white"/>
<path opacity="0.1" d="M54.3582 64.6558V65.7292L52.0439 65.4928V64.6558H54.3582Z" fill="white"/>
<path opacity="0.1" d="M61.3098 62.9496C59.7231 64.9688 54.4836 63.5737 54.4836 63.5737L50.5901 59.5325L50.0618 58.9847L51.0949 57.0757C51.0949 57.0757 51.3901 57.1726 51.8831 57.3429C54.4925 58.2505 62.6455 61.2506 61.3098 62.9496Z" fill="black"/>
<path d="M61.162 62.6557C59.5754 64.6748 54.3359 63.2798 54.3359 63.2798L50.4424 59.2385L49.9141 58.6908L50.9472 56.7817C50.9472 56.7817 51.2424 56.8787 51.7353 57.049C54.3448 57.9565 62.4978 60.9566 61.162 62.6557Z" fill="#EFB7B9"/>
<path opacity="0.1" d="M51.7295 57.049C51.514 57.6658 50.9664 58.5792 50.4366 59.2385L49.9082 58.6908L50.9413 56.7817C50.9413 56.7817 51.238 56.8787 51.7295 57.049Z" fill="black"/>
<path d="M38.8388 34.2112C38.8388 34.2112 34.9645 35.6797 34.9276 39.7914C34.9188 42.4411 35.0666 45.0889 35.3704 47.7213C35.3704 47.7213 34.2635 53.8522 37.3998 55.6144C40.5361 57.3765 43.4511 58.845 43.4511 58.845C43.4511 58.845 48.4618 59.6527 49.0773 59.9097C49.6927 60.1667 51.8313 56.8626 51.4992 56.3119C51.1672 55.7612 46.6051 54.4029 46.0634 53.4851C45.5218 52.5673 44.1875 51.949 44.1875 51.949C44.1875 51.949 42.8267 51.0254 42.7721 50.2544C42.7175 49.4834 43.119 48.9328 43.2326 48.6024C43.3463 48.2719 43.758 45.0413 43.758 45.0413C43.758 45.0413 45.9601 33.5798 38.8388 34.2112Z" fill="#DCE6F2"/>
<path opacity="0.1" d="M40.61 47.8242C40.61 47.8242 35.3704 48.4116 35.7763 50.2472C35.7763 50.2472 37.7673 48.3955 40.61 47.8242Z" fill="black"/>
<path opacity="0.1" d="M40.6098 48.5581C40.6098 48.5581 37.6359 50.7241 38.1819 50.871C38.728 51.0178 40.6098 48.5581 40.6098 48.5581Z" fill="black"/>
<path opacity="0.1" d="M41.9382 49.4395C41.9382 49.4395 41.0896 50.9579 41.5693 50.8786C42.0489 50.7993 41.9382 49.4395 41.9382 49.4395Z" fill="black"/>
<path d="M96.4913 16.5043C96.4913 16.5043 90.8828 16.168 91.5381 20.083C91.5381 20.083 91.4068 20.7746 92.037 21.0889C92.037 21.0889 92.0473 20.7952 92.6126 20.8965C92.8139 20.9302 93.0185 20.9401 93.2221 20.9259C93.4981 20.9076 93.7604 20.7998 93.969 20.619V20.619C93.969 20.619 95.5467 19.9714 96.1607 17.4045C96.1607 17.4045 96.6153 16.8435 96.6035 16.6996L95.6559 17.1034C95.6559 17.1034 95.9792 17.7833 95.7238 18.3487C95.7238 18.3487 95.6943 17.1284 95.5113 17.1563C95.4744 17.1563 95.0198 17.3927 95.0198 17.3927C95.0198 17.3927 95.5762 18.5763 95.1556 19.4383C95.1556 19.4383 95.315 17.9787 94.8457 17.4779L94.1785 17.8656C94.1785 17.8656 94.8294 19.0888 94.3881 20.0874C94.3881 20.0874 94.5018 18.5558 94.0383 17.9596L93.4332 18.428C93.4332 18.428 94.0457 19.6351 93.6723 20.4633C93.6723 20.4633 93.6236 18.6806 93.3018 18.5455C93.3018 18.5455 92.7735 19.0095 92.6938 19.2004C92.6938 19.2004 93.1115 20.0815 92.8517 20.5382C92.8517 20.5382 92.6923 19.3502 92.5565 19.3443C92.5565 19.3443 92.0296 20.1315 91.975 20.666C92.0005 20.1677 92.1567 19.6847 92.4281 19.265C92.1244 19.3222 91.8443 19.4667 91.6222 19.6806C91.6222 19.6806 91.7034 19.1241 92.558 19.0756C92.558 19.0756 93.0008 18.4779 93.11 18.4412C93.11 18.4412 92.2598 18.3707 91.7448 18.5984C91.7448 18.5984 92.1979 18.0741 93.2664 18.3047L93.8568 17.8201C93.8568 17.8201 92.738 17.6732 92.2628 17.8362C92.2628 17.8362 92.8089 17.3722 94.0177 17.7099L94.6671 17.3237C94.6671 17.3237 93.7136 17.1181 93.1454 17.193C93.1454 17.193 93.7446 16.8714 94.8575 17.2194L95.3224 17.0124C95.3224 17.0124 94.6228 16.8758 94.4191 16.8538C94.2154 16.8318 94.2036 16.776 94.2036 16.776C94.6462 16.7027 95.1006 16.7535 95.5157 16.9228C95.5157 16.9228 96.512 16.566 96.4913 16.5043Z" fill="#A2BD30"/>
<path opacity="0.1" d="M113.532 36.0849C113.532 36.0849 107.924 35.7486 108.579 39.6636C108.579 39.6636 108.448 40.3552 109.078 40.6695C109.078 40.6695 109.088 40.3758 109.655 40.4771C109.856 40.5108 110.061 40.5207 110.264 40.5065C110.537 40.4868 110.796 40.3796 111.002 40.201V40.201C111.002 40.201 112.582 39.552 113.196 36.985C113.196 36.985 113.649 36.4256 113.631 36.2816L112.683 36.684C112.683 36.684 113.007 37.3639 112.753 37.9293C112.753 37.9293 112.722 36.709 112.54 36.7369C112.503 36.7369 112.047 36.9733 112.047 36.9733C112.047 36.9733 112.605 38.1584 112.185 39.0189C112.185 39.0189 112.344 37.5592 111.873 37.0585L111.213 37.4417C111.213 37.4417 111.864 38.665 111.423 39.6636C111.423 39.6636 111.537 38.1319 111.073 37.5357L110.47 38.0056C110.47 38.0056 111.081 39.2113 110.709 40.0395C110.709 40.0395 110.66 38.2568 110.338 38.1217C110.338 38.1217 109.81 38.5857 109.729 38.7766C109.729 38.7766 110.148 39.6577 109.888 40.1144C109.888 40.1144 109.729 38.9264 109.593 38.9205C109.593 38.9205 109.066 39.7076 109.011 40.2421C109.038 39.7438 109.194 39.2609 109.466 38.8412C109.162 38.8985 108.881 39.043 108.659 39.2568C108.659 39.2568 108.741 38.7002 109.596 38.6518C109.596 38.6518 110.031 38.0541 110.148 38.0174C110.148 38.0174 109.298 37.9469 108.783 38.1745C108.783 38.1745 109.236 37.6503 110.303 37.8882L110.893 37.4036C110.893 37.4036 109.773 37.2567 109.299 37.4197C109.299 37.4197 109.845 36.9557 111.054 37.2934L111.703 36.9072C111.703 36.9072 110.748 36.7031 110.18 36.7765C110.18 36.7765 110.781 36.4549 111.894 36.803L112.359 36.5959C112.359 36.5959 111.659 36.4593 111.454 36.4373C111.249 36.4153 111.238 36.3595 111.238 36.3595C111.682 36.2861 112.136 36.337 112.552 36.5063C112.552 36.5063 113.55 36.1465 113.532 36.0849Z" fill="#A2BD30"/>
<path opacity="0.1" d="M79.4606 32.6093C79.4606 32.6093 80.752 27.1627 76.7611 27.1436C76.7611 27.1436 76.0984 26.8969 75.6807 27.4608C75.6807 27.4608 75.9656 27.521 75.7722 28.0584C75.7054 28.2485 75.6608 28.4456 75.6394 28.6458C75.6108 28.9188 75.6725 29.1936 75.815 29.4285V29.4285C75.815 29.4285 76.1884 31.0879 78.6193 32.1276C78.6193 32.1276 79.0975 32.668 79.2422 32.6739L79.006 31.6768C79.006 31.6768 78.2769 31.878 77.7603 31.5299C77.7603 31.5299 78.975 31.7076 78.9765 31.5299C78.9765 31.4932 78.8289 31.0072 78.8289 31.0072C78.8289 31.0072 77.5611 31.3508 76.7788 30.7913C76.7788 30.7913 78.1972 31.1966 78.7743 30.8221L78.5086 30.0996C78.5086 30.0996 77.1803 30.5299 76.2711 29.9264C76.2711 29.9264 77.7692 30.2993 78.4392 29.9469L78.0776 29.2743C78.0776 29.2743 76.7788 29.6679 76.0217 29.1613C76.0217 29.1613 77.7928 29.4168 77.9847 29.126C77.9847 29.126 77.6157 28.5284 77.44 28.4167C77.44 28.4167 76.5013 28.6781 76.0881 28.3448C76.0881 28.3448 77.291 28.3903 77.319 28.264C77.319 28.264 76.6298 27.6135 76.1043 27.4666C76.594 27.5776 77.0462 27.8134 77.4164 28.151C77.411 27.8432 77.3156 27.5437 77.1419 27.289C77.1419 27.289 77.6791 27.4652 77.5847 28.3169C77.5847 28.3169 78.1013 28.8455 78.1175 28.966C78.1175 28.966 78.3315 28.1451 78.1942 27.6003C78.1942 27.6003 78.637 28.1348 78.2193 29.1407L78.5972 29.8089C78.5972 29.8089 78.9396 28.7369 78.8525 28.2435C78.8525 28.2435 79.22 28.8573 78.6783 29.9851L78.9514 30.6885C78.9514 30.6885 79.3159 29.7868 79.3396 29.22C79.3396 29.22 79.5565 29.8632 79.0208 30.8956L79.1477 31.386C79.1477 31.386 79.4016 30.7237 79.4576 30.527C79.5137 30.3302 79.5713 30.3287 79.5713 30.3287C79.569 30.7755 79.4418 31.2128 79.2038 31.5916C79.2038 31.5916 79.3971 32.6166 79.4606 32.6093Z" fill="#A2BD30"/>
<path opacity="0.1" d="M67.178 34.4654C67.178 34.4654 62.6735 31.1128 61.0633 34.7444C61.0633 34.7444 60.5718 35.251 60.9246 35.8575C60.9246 35.8575 61.0928 35.621 61.5149 36.0131C61.6644 36.1515 61.8299 36.2718 62.0079 36.3714C62.2489 36.505 62.5272 36.5566 62.8004 36.5183V36.5183C62.8004 36.5183 64.4771 36.8399 66.4076 35.0322C66.4076 35.0322 67.0969 34.8119 67.1618 34.6827L66.1449 34.505C66.1449 34.505 66.0386 35.2495 65.5147 35.5829C65.5147 35.5829 66.1626 34.5461 65.9943 34.4712C65.9604 34.4551 65.4527 34.3978 65.4527 34.3978C65.4527 34.3978 65.2638 35.693 64.4372 36.182C64.4372 36.182 65.3774 35.0498 65.2608 34.3743L64.4889 34.3332C64.4889 34.3332 64.3575 35.7121 63.4366 36.3054C63.4366 36.3054 64.3767 35.088 64.3221 34.3361L63.5576 34.3978C63.5576 34.3978 63.4026 35.7385 62.6337 36.2261C62.6337 36.2261 63.5768 34.7106 63.3834 34.4228C63.3834 34.4228 62.6853 34.5212 62.5126 34.6357C62.5126 34.6357 62.3783 35.5961 61.906 35.8398C61.906 35.8398 62.43 34.7605 62.3237 34.6856C62.3237 34.6856 61.4485 35.0542 61.1046 35.4742C61.4021 35.0721 61.7999 34.7542 62.2588 34.552C61.9733 34.4339 61.6594 34.4013 61.3555 34.458C61.3555 34.458 61.7304 34.038 62.4713 34.4654C62.4713 34.4654 63.165 34.2054 63.2831 34.2377C63.2831 34.2377 62.6115 33.7135 62.0551 33.6224C62.0551 33.6224 62.7252 33.4315 63.4853 34.2098L64.2513 34.132C64.2513 34.132 63.3997 33.3978 62.9111 33.2744C62.9111 33.2744 63.624 33.1848 64.4461 34.1276L65.2018 34.1614C65.2018 34.1614 64.5184 33.4683 64.0033 33.2186C64.0033 33.2186 64.6808 33.2773 65.4187 34.1775L65.922 34.2583C65.922 34.2583 65.4128 33.7619 65.2534 33.6327C65.094 33.5035 65.1162 33.4492 65.1162 33.4492C65.5268 33.6301 65.8788 33.9209 66.1331 34.2891C66.1331 34.2891 67.1588 34.5256 67.178 34.4654Z" fill="#A2BD30"/>
<path opacity="0.1" d="M82.1749 3.31708C82.1749 3.31708 77.6703 -0.0369372 76.0601 3.59609C76.0601 3.59609 75.5686 4.10272 75.9214 4.70921C75.9214 4.70921 76.0896 4.47278 76.5117 4.86487C76.662 5.00255 76.828 5.1223 77.0062 5.22171C77.2472 5.35536 77.5255 5.40693 77.7987 5.36856V5.36856C77.7987 5.36856 79.4754 5.69015 81.4059 3.88098C81.4059 3.88098 82.0952 3.66218 82.1586 3.53148L81.1417 3.35673C81.1417 3.35673 81.0369 4.10125 80.5115 4.4346C80.5115 4.4346 81.1609 3.39785 80.9926 3.32296C80.9587 3.3068 80.451 3.24953 80.451 3.24953C80.451 3.24953 80.2562 4.54767 79.4296 5.03374C79.4296 5.03374 80.3683 3.90154 80.2532 3.22604L79.4813 3.18492C79.4813 3.18492 79.3485 4.56383 78.429 5.15563C78.429 5.15563 79.3691 3.93825 79.3145 3.18639L78.5515 3.24806C78.5515 3.24806 78.395 4.59026 77.6261 5.0778C77.6261 5.0778 78.5707 3.56232 78.3773 3.2745C78.3773 3.2745 77.6792 3.37288 77.5065 3.48743C77.5065 3.48743 77.3722 4.44782 76.8999 4.69158C76.8999 4.69158 77.4239 3.61225 77.3176 3.53589C77.3176 3.53589 76.4424 3.90594 76.0985 4.32593C76.3955 3.92338 76.7935 3.60539 77.2527 3.40372C76.9669 3.28478 76.6522 3.2521 76.3479 3.30974C76.3479 3.30974 76.7243 2.88975 77.4652 3.31708C77.4652 3.31708 78.1589 3.05569 78.2769 3.08947C78.2769 3.08947 77.6054 2.56522 77.049 2.4727C77.049 2.4727 77.7176 2.28327 78.4777 3.0601L79.2437 2.98227C79.2437 2.98227 78.3935 2.24803 77.9035 2.1232C77.9035 2.1232 78.6164 2.0351 79.44 2.97786L80.1956 3.01017C80.1956 3.01017 79.5123 2.31704 78.9957 2.06887C78.9957 2.06887 79.6746 2.12761 80.4126 3.02779L80.9144 3.10856C80.9144 3.10856 80.4037 2.61808 80.2443 2.49179C80.0849 2.3655 80.1071 2.3097 80.1071 2.3097C80.5178 2.49041 80.8699 2.78125 81.124 3.14968C81.124 3.14968 82.1498 3.37289 82.1749 3.31708Z" fill="#A2BD30"/>
<path opacity="0.1" d="M99.3869 7.56544C99.3869 7.56544 97.5863 2.26274 94.1902 4.34652C94.1902 4.34652 93.4965 4.49337 93.4419 5.18502C93.4419 5.18502 93.7149 5.08517 93.836 5.64319C93.8809 5.84169 93.9488 6.03436 94.0382 6.21737C94.1601 6.46366 94.359 6.66406 94.6049 6.78861V6.78861C94.6049 6.78861 95.8034 8.00011 98.4246 7.59921C98.4246 7.59921 99.1168 7.80774 99.2437 7.73578L98.5058 7.01476C98.5058 7.01476 97.9951 7.56837 97.3723 7.54635C97.3723 7.54635 98.4984 7.05881 98.4054 6.90168C98.3862 6.87084 98.001 6.5375 98.001 6.5375C98.001 6.5375 97.1066 7.49642 96.1472 7.43327C96.1472 7.43327 97.5656 7.03091 97.8549 6.40533L97.2439 5.93689C97.2439 5.93689 96.3495 6.99713 95.2528 6.96483C95.2528 6.96483 96.7288 6.49344 97.1022 5.84144L96.438 5.4611C96.438 5.4611 95.5525 6.47876 94.6344 6.44645C94.6344 6.44645 96.2757 5.7313 96.2801 5.38474C96.2801 5.38474 95.6499 5.07195 95.4418 5.06901C95.4418 5.06901 94.7835 5.78417 94.261 5.71955C94.261 5.71955 95.306 5.12482 95.2617 5.00293C95.2617 5.00293 94.3319 4.8135 93.8079 4.96622C94.2818 4.80205 94.7906 4.76408 95.2838 4.85608C95.1154 4.59748 94.8749 4.39335 94.5916 4.26869C94.5916 4.26869 95.1407 4.13506 95.5082 4.90454C95.5082 4.90454 96.2284 5.08223 96.3052 5.17474C96.3052 5.17474 96.0513 4.36561 95.6454 3.97499C95.6454 3.97499 96.3052 4.19673 96.4852 5.2702L97.1612 5.63732C97.1612 5.63732 96.8823 4.54917 96.5457 4.16883C96.5457 4.16883 97.1848 4.49777 97.3236 5.73864L97.9287 6.1924C97.9287 6.1924 97.7604 5.23495 97.4771 4.73861C97.4771 4.73861 98.0025 5.17034 98.0969 6.32897L98.4644 6.67847C98.4644 6.67847 98.3287 5.98241 98.2726 5.78563C98.2165 5.58886 98.2622 5.57564 98.2622 5.57564C98.4969 5.95659 98.621 6.39469 98.6209 6.84147C98.6209 6.84147 99.3352 7.60362 99.3869 7.56544Z" fill="#A2BD30"/>
<path opacity="0.1" d="M87.6357 7.82736C87.6357 7.82736 82.042 7.20766 82.5039 11.1564C82.5039 11.1564 82.3371 11.8407 82.9467 12.1843C82.9467 12.1843 82.9718 11.8907 83.5371 12.0228C83.7368 12.0656 83.9408 12.0858 84.1451 12.083C84.4211 12.0781 84.688 11.9837 84.9052 11.8143V11.8143C84.9052 11.8143 86.5155 11.246 87.2667 8.71285C87.2667 8.71285 87.7479 8.17686 87.7375 8.03148L86.7708 8.38685C86.7708 8.38685 87.066 9.08144 86.7708 9.63359C86.7708 9.63359 86.8018 8.41328 86.6232 8.43237C86.5863 8.43237 86.1199 8.64383 86.1199 8.64383C86.1199 8.64383 86.6158 9.85533 86.1524 10.6997C86.1524 10.6997 86.3856 9.24885 85.9413 8.72607L85.255 9.07851C85.255 9.07851 85.8454 10.3341 85.351 11.3091C85.351 11.3091 85.5428 9.78485 85.1104 9.16661L84.4831 9.60716C84.4831 9.60716 85.0322 10.8422 84.6174 11.6513C84.6174 11.6513 84.6602 9.86855 84.3459 9.7173C84.3459 9.7173 83.7939 10.1578 83.7038 10.3399C83.7038 10.3399 84.0773 11.2357 83.7954 11.6836C83.7954 11.6836 83.6965 10.4897 83.5666 10.478C83.5666 10.478 82.9998 11.2372 82.9172 11.7732C82.9684 11.2762 83.1495 10.8013 83.4426 10.3957C83.1363 10.4378 82.8491 10.568 82.6161 10.7702C82.6161 10.7702 82.7253 10.2195 83.5814 10.2136C83.5814 10.2136 84.0463 9.63947 84.1717 9.60863C84.1717 9.60863 83.326 9.49555 82.7991 9.69674C82.7991 9.69674 83.2788 9.19452 84.3326 9.48674L84.954 9.03298C84.954 9.03298 83.8308 8.80684 83.3555 8.95368C83.3555 8.95368 83.9252 8.51314 85.1148 8.91697L85.7834 8.56307C85.7834 8.56307 84.8403 8.31049 84.2691 8.35601C84.2691 8.35601 84.8846 8.06231 85.9782 8.46908L86.4535 8.28552C86.4535 8.28552 85.7613 8.11371 85.5576 8.0814C85.3539 8.0491 85.3465 7.9933 85.3465 7.9933C85.7927 7.94236 86.2444 8.01556 86.6513 8.20476C86.6513 8.20476 87.646 7.88903 87.6357 7.82736Z" fill="#A2BD30"/>
<path opacity="0.1" d="M136.577 51.0257C136.577 51.0257 130.986 50.406 131.448 54.3503C131.448 54.3503 131.282 55.0346 131.891 55.3782C131.891 55.3782 131.916 55.0845 132.482 55.2152C132.681 55.2595 132.885 55.2797 133.09 55.2754C133.366 55.2712 133.633 55.1768 133.85 55.0067V55.0067C133.85 55.0067 135.46 54.4384 136.204 51.9067C136.204 51.9067 136.685 51.3693 136.675 51.2254L135.708 51.5793C135.708 51.5793 136.003 52.2753 135.708 52.8275C135.708 52.8275 135.739 51.6057 135.56 51.6263C135.523 51.6263 135.057 51.8363 135.057 51.8363C135.057 51.8363 135.553 53.0478 135.09 53.8921C135.09 53.8921 135.323 52.4427 134.878 51.9185L134.192 52.2724C134.192 52.2724 134.783 53.5279 134.29 54.503C134.29 54.503 134.48 52.9787 134.048 52.359L133.42 52.7996C133.42 52.7996 133.969 54.0346 133.555 54.8422C133.555 54.8422 133.597 53.0595 133.283 52.9097C133.283 52.9097 132.732 53.3503 132.641 53.5324C132.641 53.5324 133.016 54.4281 132.732 54.876C132.732 54.876 132.634 53.6821 132.504 53.6704C132.504 53.6704 131.937 54.4296 131.854 54.9656C131.905 54.4687 132.087 53.9938 132.38 53.5882C132.073 53.6295 131.786 53.7598 131.553 53.9626C131.553 53.9626 131.662 53.4105 132.518 53.4046C132.518 53.4046 132.985 52.8304 133.109 52.8011C133.109 52.8011 132.263 52.6865 131.736 52.8877C131.736 52.8877 132.216 52.3869 133.271 52.6792L133.891 52.2254C133.891 52.2254 132.781 52.0169 132.299 52.1608C132.299 52.1608 132.868 51.7203 134.058 52.1226L134.726 51.7702C134.726 51.7702 133.783 51.5176 133.212 51.5631C133.212 51.5631 133.828 51.2694 134.921 51.6762L135.396 51.4912C135.396 51.4912 134.704 51.3194 134.501 51.2885C134.297 51.2577 134.29 51.2004 134.29 51.2004C134.736 51.1485 135.187 51.2213 135.594 51.4104C135.594 51.4104 136.592 51.0888 136.577 51.0257Z" fill="#A2BD30"/>
<path opacity="0.1" d="M145.124 56.2208C145.124 56.2208 139.533 55.6025 139.995 59.5454C139.995 59.5454 139.83 60.2297 140.438 60.5733C140.438 60.5733 140.463 60.2797 141.029 60.4118C141.228 60.4549 141.431 60.4747 141.635 60.4706C141.91 60.465 142.175 60.3712 142.392 60.2033V60.2033C142.392 60.2033 144.001 59.635 144.745 57.1019C144.745 57.1019 145.228 56.5659 145.216 56.4205L144.249 56.7744C144.249 56.7744 144.544 57.4705 144.249 58.0226C144.249 58.0226 144.28 56.8023 144.101 56.8214C144.064 56.8214 143.598 57.0314 143.598 57.0314C143.598 57.0314 144.094 58.2429 143.631 59.0872C143.631 59.0872 143.864 57.6379 143.42 57.1151L142.733 57.4675C142.733 57.4675 143.324 58.7231 142.831 59.6981C142.831 59.6981 143.021 58.1739 142.589 57.5556L141.961 57.9962C141.961 57.9962 142.51 59.2312 142.097 60.0403C142.097 60.0403 142.138 58.2561 141.824 58.1063C141.824 58.1063 141.274 58.5468 141.182 58.7289C141.182 58.7289 141.557 59.6247 141.274 60.0726C141.274 60.0726 141.175 58.8787 141.045 58.867C141.045 58.867 140.478 59.6262 140.397 60.1622C140.448 59.6655 140.629 59.1906 140.921 58.7847C140.615 58.8269 140.327 58.957 140.094 59.1592C140.094 59.1592 140.205 58.6071 141.061 58.6027C141.061 58.6027 141.526 58.0285 141.651 57.9976C141.651 57.9976 140.806 57.8846 140.279 58.0857C140.279 58.0857 140.758 57.5835 141.814 57.8758L142.434 57.422C142.434 57.422 141.324 57.2135 140.841 57.3574C140.841 57.3574 141.411 56.9168 142.6 57.3207L143.269 56.9668C143.269 56.9668 142.326 56.7142 141.755 56.7597C141.755 56.7597 142.37 56.466 143.464 56.8728L143.939 56.6892C143.939 56.6892 143.247 56.5174 143.045 56.4851C142.842 56.4528 142.832 56.397 142.832 56.397C143.278 56.3461 143.73 56.4193 144.137 56.6085C144.137 56.6085 145.139 56.2839 145.124 56.2208Z" fill="#A2BD30"/>
<path opacity="0.1" d="M126.148 12.4585C126.148 12.4585 121.644 9.10597 120.034 12.7375C120.034 12.7375 119.542 13.2442 119.895 13.8506C119.895 13.8506 120.063 13.6142 120.485 14.0063C120.635 14.1447 120.8 14.265 120.978 14.3646C121.219 14.4981 121.498 14.5496 121.771 14.5115V14.5115C121.771 14.5115 123.447 14.8331 125.379 13.0254C125.379 13.0254 126.067 12.8051 126.132 12.6759L125.118 12.4938C125.118 12.4938 125.012 13.2383 124.488 13.5716C124.488 13.5716 125.136 12.5349 124.968 12.46C124.934 12.4438 124.427 12.3866 124.427 12.3866C124.427 12.3866 124.237 13.6818 123.411 14.1708C123.411 14.1708 124.351 13.0386 124.234 12.3631L123.462 12.322C123.462 12.322 123.331 13.7009 122.41 14.2941C122.41 14.2941 123.351 13.0768 123.295 12.3249L122.531 12.3866C122.531 12.3866 122.383 13.7273 121.607 14.2148C121.607 14.2148 122.552 12.6994 122.357 12.4115C122.357 12.4115 121.659 12.5099 121.486 12.6245C121.486 12.6245 121.353 13.5848 120.881 13.8286C120.881 13.8286 121.403 12.7493 121.297 12.6744C121.297 12.6744 120.422 13.043 120.078 13.463C120.375 13.0608 120.773 12.743 121.232 12.5408C120.947 12.4227 120.633 12.39 120.329 12.4468C120.329 12.4468 120.705 12.0268 121.446 12.4541C121.446 12.4541 122.138 12.1942 122.256 12.2265C122.256 12.2265 121.585 11.7023 121.028 11.6112C121.028 11.6112 121.698 11.4203 122.459 12.1986L123.225 12.1208C123.225 12.1208 122.374 11.3865 121.884 11.2632C121.884 11.2632 122.597 11.1736 123.419 12.1164L124.177 12.1501C124.177 12.1501 123.492 11.457 122.977 11.2074C122.977 11.2074 123.656 11.2661 124.392 12.1663L124.895 12.2471C124.895 12.2471 124.386 11.7507 124.227 11.6215C124.067 11.4923 124.091 11.4497 124.091 11.4497C124.501 11.6309 124.852 11.9216 125.106 12.2896C125.106 12.2896 126.129 12.5187 126.148 12.4585Z" fill="#A2BD30"/>
<path opacity="0.1" d="M129.629 36.6619C129.629 36.6619 128.076 31.2828 124.584 33.2139C124.584 33.2139 123.884 33.3211 123.797 34.0171C123.797 34.0171 124.075 33.9305 124.171 34.4929C124.206 34.695 124.266 34.8921 124.348 35.0803C124.457 35.3333 124.647 35.5438 124.888 35.6794V35.6794C124.888 35.6794 126.03 36.9423 128.666 36.6604C128.666 36.6604 129.348 36.8983 129.478 36.8337L128.78 36.0789C128.78 36.0789 128.244 36.6105 127.624 36.5605C127.624 36.5605 128.77 36.12 128.681 35.9629C128.663 35.9305 128.294 35.5796 128.294 35.5796C128.294 35.5796 127.359 36.4989 126.402 36.3917C126.402 36.3917 127.838 36.0539 128.154 35.446L127.564 34.9496C127.564 34.9496 126.622 35.9687 125.528 35.8894C125.528 35.8894 127.016 35.4827 127.427 34.8497L126.78 34.44C126.78 34.44 125.843 35.4166 124.934 35.3432C124.934 35.3432 126.606 34.7014 126.627 34.3563C126.627 34.3563 126.01 34.0156 125.802 34.0039C125.802 34.0039 125.112 34.6882 124.588 34.6001C124.588 34.6001 125.66 34.0524 125.621 33.929C125.621 33.929 124.701 33.6985 124.171 33.8262C124.651 33.6846 125.159 33.6699 125.647 33.7836C125.49 33.5179 125.26 33.3035 124.982 33.1669C124.982 33.1669 125.537 33.0567 125.868 33.8424C125.868 33.8424 126.578 34.0509 126.652 34.1478C126.652 34.1478 126.435 33.3269 126.047 32.9202C126.047 32.9202 126.696 33.1698 126.827 34.2506L127.486 34.6486C127.486 34.6486 127.255 33.5472 126.937 33.1595C126.937 33.1595 127.559 33.5164 127.643 34.7616L128.234 35.2418C128.234 35.2418 128.108 34.2785 127.849 33.7733C127.849 33.7733 128.355 34.2286 128.396 35.3887L128.747 35.7558C128.747 35.7558 128.644 35.0539 128.6 34.8542C128.556 34.6544 128.6 34.6265 128.6 34.6265C128.818 35.0171 128.923 35.4605 128.902 35.9071C128.902 35.9071 129.575 36.6971 129.629 36.6619Z" fill="#A2BD30"/>
<path opacity="0.1" d="M95.03 48.7833C95.03 48.7833 92.0147 44.0577 89.2149 46.886C89.2149 46.886 88.5744 47.1797 88.6865 47.8772C88.6865 47.8772 88.93 47.7157 89.181 48.2297C89.2711 48.4118 89.3831 48.5824 89.5145 48.7378C89.6905 48.9498 89.9316 49.0984 90.2008 49.1607V49.1607C90.2008 49.1607 91.6546 50.0535 94.1046 49.0432C94.1046 49.0432 94.8264 49.0814 94.9326 48.983L94.0471 48.4543C94.0471 48.4543 93.6825 49.1152 93.073 49.24C93.073 49.24 94.05 48.5057 93.9187 48.3706C93.8936 48.3442 93.439 48.1122 93.439 48.1122C93.439 48.1122 92.7999 49.2547 91.8524 49.4206C91.8524 49.4206 93.135 48.6937 93.2678 48.0211L92.5608 47.7113C92.5608 47.7113 91.9454 48.9522 90.8738 49.1798C90.8738 49.1798 92.1874 48.3736 92.4014 47.6511L91.6635 47.4396C91.6635 47.4396 91.0406 48.6394 90.1477 48.8229C90.1477 48.8229 91.5705 47.7392 91.4923 47.4014C91.4923 47.4014 90.8045 47.2473 90.6067 47.2942C90.6067 47.2942 90.1388 48.1445 89.6105 48.2062C89.6105 48.2062 90.4842 47.3809 90.4119 47.2722C90.4119 47.2722 89.4629 47.3089 88.9906 47.5806C89.4119 47.309 89.8973 47.1521 90.3986 47.1254C90.1742 46.914 89.8925 46.7726 89.5883 46.7186C89.5883 46.7186 90.0886 46.4587 90.6215 47.1195C90.6215 47.1195 91.3594 47.1195 91.4613 47.1929C91.4613 47.1929 91.0185 46.4587 90.5329 46.1841C90.5329 46.1841 91.2266 46.2428 91.6576 47.2429L92.4029 47.4396C92.4029 47.4396 91.8701 46.4484 91.4554 46.165C91.4554 46.165 92.1535 46.3324 92.5859 47.5057L93.2825 47.7994C93.2825 47.7994 92.89 46.911 92.4959 46.4954C92.4959 46.4954 93.1099 46.7891 93.4774 47.8919L93.9201 48.146C93.9201 48.146 93.625 47.5013 93.5202 47.3236C93.4154 47.1459 93.4567 47.1048 93.4567 47.1048C93.7761 47.4187 94.0014 47.8148 94.1076 48.2488C94.1076 48.2488 94.9902 48.8332 95.03 48.7833Z" fill="#A2BD30"/>
<path d="M114.847 24.6384C114.847 24.6384 111.98 19.8233 109.091 22.5635C109.091 22.5635 108.442 22.8425 108.533 23.5385C108.533 23.5385 108.78 23.3829 109.016 23.9042C109.1 24.0895 109.207 24.264 109.333 24.424C109.503 24.6406 109.739 24.7954 110.006 24.8646V24.8646C110.006 24.8646 111.43 25.8015 113.911 24.8646C113.911 24.8646 114.632 24.9248 114.741 24.8293L113.875 24.2742C113.875 24.2742 113.491 24.9219 112.877 25.0291C112.877 25.0291 113.876 24.3198 113.751 24.1861C113.724 24.1582 113.278 23.9115 113.278 23.9115C113.278 23.9115 112.604 25.0349 111.655 25.1715C111.655 25.1715 112.96 24.4842 113.112 23.8175L112.415 23.4915C112.415 23.4915 111.761 24.7148 110.682 24.9101C110.682 24.9101 112.021 24.145 112.257 23.4299L111.528 23.1949C111.528 23.1949 110.867 24.3697 109.969 24.5312C109.969 24.5312 111.425 23.4915 111.357 23.1523C111.357 23.1523 110.675 22.9761 110.471 23.0172C110.471 23.0172 109.977 23.8528 109.447 23.8983C109.447 23.8983 110.346 23.1024 110.278 22.9908C110.278 22.9908 109.327 22.9981 108.848 23.2551C109.277 22.9972 109.767 22.8555 110.269 22.8439C110.051 22.6256 109.773 22.4756 109.47 22.4122C109.47 22.4122 109.98 22.167 110.504 22.8439C110.504 22.8439 111.242 22.8689 111.34 22.9438C111.34 22.9438 110.923 22.2096 110.445 21.907C110.445 21.907 111.135 21.9863 111.535 22.9996L112.273 23.2199C112.273 23.2199 111.773 22.2125 111.366 21.9159C111.366 21.9159 112.059 22.1053 112.455 23.2904L113.141 23.609C113.141 23.609 112.776 22.7088 112.403 22.2874C112.403 22.2874 113.007 22.6002 113.342 23.7133L113.774 23.9806C113.774 23.9806 113.497 23.3271 113.399 23.1464C113.302 22.9658 113.343 22.9262 113.343 22.9262C113.653 23.2497 113.866 23.6523 113.959 24.0892C113.959 24.0892 114.804 24.6869 114.847 24.6384Z" fill="#A2BD30"/>
<path d="M96.7036 34.7634C96.7036 34.7634 96.8512 29.1684 92.9445 29.957C92.9445 29.957 92.2449 29.8498 91.9497 30.4871C91.9497 30.4871 92.2449 30.4871 92.1622 31.0525C92.1352 31.2541 92.1322 31.4582 92.1534 31.6605C92.1801 31.9349 92.2968 32.1929 92.4855 32.3947C92.4855 32.3947 93.1895 33.9425 95.7886 34.4682C95.7886 34.4682 96.3657 34.9014 96.5103 34.8779L96.0675 33.9498C96.0675 33.9498 95.396 34.2935 94.8189 34.06C94.8189 34.06 96.0439 33.988 96.01 33.8089C96.01 33.7722 95.7561 33.3257 95.7561 33.3257C95.7561 33.3257 94.5842 33.9205 93.7061 33.5299C93.7061 33.5299 95.182 33.64 95.6646 33.1569L95.2528 32.5063C95.2528 32.5063 94.0455 33.1936 93.0271 32.7883C93.0271 32.7883 94.5695 32.8499 95.1539 32.3697L94.6624 31.7824C94.6624 31.7824 93.4714 32.4314 92.6272 32.0878C92.6272 32.0878 94.416 31.9806 94.5458 31.6561C94.5458 31.6561 94.0617 31.1465 93.8669 31.0687C93.8669 31.0687 93.002 31.5092 92.5297 31.2713C92.5297 31.2713 93.7105 31.0745 93.7179 30.9438C93.7179 30.9438 92.9105 30.446 92.3659 30.4093C92.8681 30.4182 93.3592 30.558 93.7902 30.8146C93.7229 30.5145 93.569 30.2404 93.3474 30.026C93.3474 30.026 93.9097 30.0892 93.9865 30.9365C93.9865 30.9365 94.6019 31.3506 94.6418 31.4652C94.6418 31.4652 94.6846 30.6178 94.4381 30.1127C94.4381 30.1127 94.9812 30.5459 94.7776 31.6149L95.2838 32.1935C95.2838 32.1935 95.3989 31.0745 95.2144 30.609C95.2144 30.609 95.6985 31.1362 95.4004 32.3492L95.8092 32.9821C95.8092 32.9821 95.9834 32.0261 95.8904 31.4637C95.8904 31.4637 96.2328 32.0511 95.9199 33.1686L96.1443 33.6238C96.1443 33.6238 96.2579 32.9234 96.2727 32.7192C96.2874 32.5151 96.3435 32.5019 96.3435 32.5019C96.4324 32.94 96.3971 33.394 96.2417 33.8133C96.2417 33.8133 96.6387 34.7825 96.7036 34.7634Z" fill="#A2BD30"/>
<path opacity="0.1" d="M103.162 105.856C105.358 105.856 107.137 105.557 107.137 105.188C107.137 104.819 105.358 104.52 103.162 104.52C100.967 104.52 99.1877 104.819 99.1877 105.188C99.1877 105.557 100.967 105.856 103.162 105.856Z" fill="#A2BD30"/>
<path opacity="0.1" d="M88.6734 116C90.8685 116 92.648 115.701 92.648 115.332C92.648 114.963 90.8685 114.664 88.6734 114.664C86.4782 114.664 84.6987 114.963 84.6987 115.332C84.6987 115.701 86.4782 116 88.6734 116Z" fill="#A2BD30"/>
<path opacity="0.1" d="M13.7466 110.803C15.9418 110.803 17.7213 110.504 17.7213 110.135C17.7213 109.766 15.9418 109.467 13.7466 109.467C11.5515 109.467 9.77197 109.766 9.77197 110.135C9.77197 110.504 11.5515 110.803 13.7466 110.803Z" fill="#A2BD30"/>
<path opacity="0.1" d="M118.82 115.332C121.016 115.332 122.795 115.033 122.795 114.664C122.795 114.295 121.016 113.996 118.82 113.996C116.625 113.996 114.846 114.295 114.846 114.664C114.846 115.033 116.625 115.332 118.82 115.332Z" fill="#A2BD30"/>
<path d="M122.959 107.185C126.236 107.185 128.894 106.738 128.894 106.186C128.894 105.635 126.236 105.188 122.959 105.188C119.681 105.188 117.024 105.635 117.024 106.186C117.024 106.738 119.681 107.185 122.959 107.185Z" fill="#A2BD30"/>
<path d="M125.419 104.552C125.69 104.333 125.887 104.037 125.985 103.703C126.058 103.365 125.914 102.961 125.59 102.838C125.227 102.7 124.839 102.95 124.544 103.202C124.249 103.455 123.914 103.744 123.529 103.691C123.726 103.512 123.874 103.286 123.958 103.033C124.042 102.781 124.059 102.511 124.007 102.251C123.99 102.142 123.944 102.041 123.874 101.957C123.672 101.742 123.307 101.835 123.065 102.004C122.298 102.541 122.084 103.578 122.079 104.512C122.003 104.176 122.067 103.825 122.066 103.484C122.065 103.143 121.969 102.75 121.675 102.571C121.495 102.471 121.291 102.42 121.084 102.424C120.739 102.412 120.354 102.446 120.119 102.697C119.824 103.008 119.902 103.533 120.156 103.872C120.41 104.211 120.798 104.43 121.155 104.668C121.441 104.838 121.685 105.069 121.87 105.345C121.891 105.383 121.908 105.423 121.921 105.465H124.085C124.569 105.222 125.018 104.915 125.419 104.552V104.552Z" fill="#A2BD30"/>
<path d="M11.0781 107.029C11.0781 107.029 13.3437 106.96 14.03 106.476C14.7163 105.991 17.5176 105.414 17.6873 106.191C17.857 106.968 21.0937 110.051 18.5345 110.072C15.9752 110.092 12.588 109.675 11.9061 109.261C11.2242 108.847 11.0781 107.029 11.0781 107.029Z" fill="#A8A8A8"/>
<path opacity="0.2" d="M18.5773 109.801C16.018 109.822 12.6308 109.405 11.9489 108.991C11.4294 108.676 11.2228 107.547 11.1534 107.026H11.0781C11.0781 107.026 11.2257 108.845 11.9032 109.258C12.5806 109.671 15.9723 110.089 18.5315 110.069C19.2695 110.069 19.5248 109.801 19.5115 109.414C19.4082 109.65 19.1263 109.797 18.5773 109.801Z" fill="black"/>
</g>
<defs>
<linearGradient id="paint0_linear" x1="32.9116" y1="63.647" x2="78.9795" y2="63.647" gradientUnits="userSpaceOnUse">
<stop stop-color="#808080" stop-opacity="0.25"/>
<stop offset="0.54" stop-color="#808080" stop-opacity="0.12"/>
<stop offset="1" stop-color="#808080" stop-opacity="0.1"/>
</linearGradient>
<clipPath id="clip0">
<rect width="149" height="116" fill="white"/>
</clipPath>
</defs>
</svg>
