<?xml version="1.0" encoding="utf-8"?>
<!-- Generator: Adobe Illustrator 16.0.3, SVG Export Plug-In . SVG Version: 6.00 Build 0)  -->
<!DOCTYPE svg PUBLIC "-//W3C//DTD SVG 1.1//EN" "http://www.w3.org/Graphics/SVG/1.1/DTD/svg11.dtd">
<svg version="1.1" id="Capa_1" xmlns="http://www.w3.org/2000/svg" xmlns:xlink="http://www.w3.org/1999/xlink" x="0px" y="0px"
	 width="312.503px" height="175.05px" viewBox="0 0 312.503 175.05" enable-background="new 0 0 312.503 175.05"
	 xml:space="preserve">
<g>
	<path d="M238.693,18.993h16.465v18.629h18.002V18.993h16.537v53.235H273.16V50.699h-18.002v21.529h-16.465V18.993z M203.412,52.942
		V41.874h25.434v22.694c-4.865,3.309-9.17,5.576-12.918,6.768c-3.745,1.201-8.187,1.797-13.323,1.797
		c-6.328,0-11.476-1.078-15.459-3.234c-3.994-2.145-7.084-5.355-9.268-9.619c-2.195-4.264-3.299-9.146-3.299-14.662
		c0-5.813,1.203-10.871,3.598-15.171c2.406-4.288,5.918-7.548,10.545-9.779c3.61-1.723,8.474-2.579,14.576-2.579
		c5.882,0,10.285,0.533,13.213,1.6c2.916,1.066,5.334,2.715,7.27,4.957c1.924,2.231,3.375,5.07,4.344,8.516l-15.882,2.826
		c-0.656-2.008-1.773-3.545-3.336-4.611c-1.551-1.066-3.548-1.599-5.967-1.599c-3.61,0-6.488,1.252-8.635,3.756
		c-2.146,2.517-3.226,6.469-3.226,11.897c0,5.765,1.092,9.879,3.262,12.346c2.159,2.467,5.187,3.707,9.07,3.707
		c1.836,0,3.597-0.273,5.257-0.807c1.678-0.533,3.6-1.438,5.747-2.713v-5.021H203.412z M148.302,18.993h16.5v53.235h-16.5V18.993z
		 M85.712,18.993h16.464v18.629h18.002V18.993h16.536v53.235h-16.536V50.699h-18.002v21.529H85.712V18.993z"/>
	<path d="M280.344,153.123h1.619c0,0.051,0.002,0.096,0.008,0.135c0.004,0.041,0.008,0.08,0.008,0.119
		c0.01,0.359,0.053,0.678,0.131,0.957c0.076,0.277,0.299,0.531,0.668,0.762c0.268,0.168,0.582,0.295,0.941,0.381
		c0.359,0.084,0.76,0.127,1.201,0.127c0.832,0,1.494-0.16,1.988-0.479c0.492-0.318,0.74-0.736,0.74-1.254
		c0-0.289-0.107-0.535-0.316-0.74c-0.211-0.203-0.557-0.391-1.041-0.559l-3.42-1.256c-0.707-0.248-1.236-0.58-1.588-0.992
		c-0.348-0.414-0.523-0.914-0.523-1.5c0-1.086,0.406-1.877,1.219-2.375c0.811-0.498,1.699-0.758,2.664-0.777h0.076h0.063
		c0.822,0,1.535,0.123,2.143,0.367c0.605,0.242,1.078,0.604,1.416,1.082c0.236,0.309,0.381,0.639,0.432,0.992
		s0.082,0.715,0.094,1.084l-1.619-0.016c-0.02-0.328-0.043-0.57-0.068-0.725c-0.025-0.152-0.076-0.291-0.148-0.41
		c-0.01-0.01-0.021-0.025-0.037-0.045s-0.027-0.039-0.037-0.061c-0.176-0.268-0.467-0.484-0.871-0.648
		c-0.406-0.164-0.852-0.248-1.332-0.248c-0.689,0-1.258,0.156-1.703,0.465c-0.447,0.309-0.672,0.701-0.672,1.18
		c0,0.277,0.064,0.5,0.193,0.664s0.367,0.316,0.717,0.455c0.041,0.02,0.088,0.039,0.139,0.061c0.051,0.02,0.102,0.039,0.154,0.061
		l3.559,1.268c0.719,0.27,1.252,0.609,1.602,1.023c0.35,0.412,0.525,0.918,0.525,1.516c0,0.498-0.129,0.973-0.387,1.426
		c-0.256,0.453-0.615,0.828-1.078,1.127c-0.379,0.24-0.801,0.412-1.264,0.516c-0.461,0.105-1.021,0.158-1.678,0.158
		c-1.479,0-2.602-0.295-3.367-0.883c-0.766-0.586-1.148-1.453-1.148-2.598V153.123z M260.271,149.242h-1.588
		c-0.215-0.758-0.574-1.313-1.076-1.666c-0.504-0.354-1.168-0.531-1.99-0.531c-1.158,0-2.064,0.383-2.717,1.145
		s-0.979,1.818-0.979,3.172c0,1.324,0.326,2.363,0.979,3.113c0.652,0.752,1.553,1.129,2.703,1.129c0.574,0,1.094-0.107,1.557-0.322
		c0.461-0.213,0.852-0.523,1.17-0.932c0.031-0.041,0.063-0.084,0.094-0.127c0.031-0.047,0.061-0.088,0.092-0.127
		c0.154-0.24,0.264-0.502,0.332-0.785c0.066-0.283,0.113-0.664,0.145-1.143h-3.496v-1.254h4.898v5.779h-1.002l-0.354-1.33
		c-0.041,0.051-0.082,0.098-0.123,0.143s-0.076,0.088-0.107,0.127c-0.482,0.488-0.982,0.832-1.494,1.031
		c-0.516,0.199-1.125,0.299-1.834,0.299c-1.572,0-2.826-0.504-3.768-1.51c-0.939-1.006-1.408-2.354-1.408-4.047
		c0-1.752,0.482-3.145,1.447-4.182c0.965-1.035,2.264-1.553,3.898-1.553c1.252,0,2.277,0.297,3.072,0.889
		c0.797,0.592,1.313,1.49,1.549,2.695V149.242z M222.035,145.867h1.756l5.115,8.557v-8.557h1.57v10.885h-1.74l-5.131-8.615v8.615
		h-1.57V145.867z M199.836,145.867h1.57v10.885h-1.57V145.867z M172.337,147.24v3.51h2.928c0.688,0.01,1.291-0.078,1.809-0.262
		c0.52-0.184,0.779-0.68,0.779-1.486c0-0.773-0.246-1.26-0.74-1.461c-0.492-0.201-1.066-0.301-1.725-0.301H172.337z
		 M170.766,145.867h4.667c0.781,0.01,1.369,0.049,1.765,0.119c0.396,0.068,0.747,0.209,1.056,0.418
		c0.012,0.01,0.021,0.018,0.031,0.021c0.01,0.006,0.02,0.014,0.031,0.023c0.379,0.258,0.666,0.594,0.862,1.008
		c0.194,0.412,0.292,0.883,0.292,1.41c0,0.629-0.128,1.141-0.385,1.539s-0.657,0.717-1.202,0.955
		c0.555,0.189,0.927,0.451,1.118,0.785c0.189,0.334,0.284,0.898,0.284,1.693v1.225c0,0.32,0.038,0.617,0.116,0.896
		c0.076,0.279,0.208,0.543,0.393,0.791h-1.85c-0.062-0.219-0.112-0.414-0.153-0.588c-0.042-0.176-0.071-0.342-0.093-0.502
		c0-0.068-0.002-0.143-0.008-0.215c-0.005-0.076-0.008-0.152-0.008-0.232v-1.389c0-0.777-0.215-1.252-0.646-1.426
		c-0.432-0.176-0.996-0.262-1.695-0.262h-3.004v4.613h-1.571V145.867z M146.441,147.509l-1.725,4.764h3.373L146.441,147.509z
		 M145.671,145.867h1.663l4.021,10.885h-1.693l-1.141-3.238h-4.297l-1.203,3.238h-1.664L145.671,145.867z M114.352,145.867h8.088
		v1.373h-6.517v3.195h6.022v1.375h-6.022v3.568h6.594v1.373h-8.165V145.867z M87.715,147.24v3.15h2.651
		c0.708,0.012,1.226-0.107,1.556-0.35c0.328-0.244,0.492-0.631,0.492-1.158c0-0.592-0.17-1.016-0.508-1.268
		c-0.34-0.25-0.899-0.375-1.679-0.375H87.715z M87.715,151.765v3.613h2.527c0.01,0.01,0.018,0.016,0.023,0.016h0.022
		c0.657,0,1.259-0.105,1.804-0.316c0.543-0.209,0.815-0.705,0.815-1.484c0-0.758-0.254-1.254-0.763-1.482
		c-0.508-0.232-1.086-0.346-1.732-0.346H87.715z M86.145,145.867h4.128c0.698,0.01,1.241,0.057,1.625,0.141
		c0.386,0.086,0.728,0.242,1.026,0.471c0.357,0.26,0.633,0.58,0.822,0.963c0.19,0.385,0.285,0.795,0.285,1.232
		c0,0.547-0.121,1.004-0.361,1.367c-0.242,0.363-0.614,0.645-1.117,0.844c0.637,0.188,1.124,0.535,1.464,1.037
		c0.339,0.502,0.509,1.072,0.509,1.709c0,0.539-0.105,1.027-0.316,1.465s-0.512,0.795-0.902,1.074
		c-0.318,0.219-0.684,0.371-1.101,0.457c-0.416,0.084-1.015,0.125-1.794,0.125h-4.268V145.867z"/>
	<path stroke="#000000" stroke-width="0.216" stroke-miterlimit="22.926" d="M280.344,153.123h1.619
		c0,0.051,0.002,0.096,0.008,0.135c0.004,0.041,0.008,0.08,0.008,0.119c0.01,0.359,0.053,0.678,0.131,0.957
		c0.076,0.277,0.299,0.531,0.668,0.762c0.268,0.168,0.582,0.295,0.941,0.381c0.359,0.084,0.76,0.127,1.201,0.127
		c0.832,0,1.494-0.16,1.988-0.479c0.492-0.318,0.74-0.736,0.74-1.254c0-0.289-0.107-0.535-0.316-0.74
		c-0.211-0.203-0.557-0.391-1.041-0.559l-3.42-1.256c-0.707-0.248-1.236-0.58-1.588-0.992c-0.348-0.414-0.523-0.914-0.523-1.5
		c0-1.086,0.406-1.877,1.219-2.375c0.811-0.498,1.699-0.758,2.664-0.777h0.076h0.063c0.822,0,1.535,0.123,2.143,0.367
		c0.605,0.242,1.078,0.604,1.416,1.082c0.236,0.309,0.381,0.639,0.432,0.992s0.082,0.715,0.094,1.084l-1.619-0.016
		c-0.02-0.328-0.043-0.57-0.068-0.725c-0.025-0.152-0.076-0.291-0.148-0.41c-0.01-0.01-0.021-0.025-0.037-0.045
		s-0.027-0.039-0.037-0.061c-0.176-0.268-0.467-0.484-0.871-0.648c-0.406-0.164-0.852-0.248-1.332-0.248
		c-0.689,0-1.258,0.156-1.703,0.465c-0.447,0.309-0.672,0.701-0.672,1.18c0,0.277,0.064,0.5,0.193,0.664s0.367,0.316,0.717,0.455
		c0.041,0.02,0.088,0.039,0.139,0.061c0.051,0.02,0.102,0.039,0.154,0.061l3.559,1.268c0.719,0.27,1.252,0.609,1.602,1.023
		c0.35,0.412,0.525,0.918,0.525,1.516c0,0.498-0.129,0.973-0.387,1.426c-0.256,0.453-0.615,0.828-1.078,1.127
		c-0.379,0.24-0.801,0.412-1.264,0.516c-0.461,0.105-1.021,0.158-1.678,0.158c-1.479,0-2.602-0.295-3.367-0.883
		c-0.766-0.586-1.148-1.453-1.148-2.598V153.123z M260.271,149.242h-1.588c-0.215-0.758-0.574-1.313-1.076-1.666
		c-0.504-0.354-1.168-0.531-1.99-0.531c-1.158,0-2.064,0.383-2.717,1.145s-0.979,1.818-0.979,3.172c0,1.324,0.326,2.363,0.979,3.113
		c0.652,0.752,1.553,1.129,2.703,1.129c0.574,0,1.094-0.107,1.557-0.322c0.461-0.213,0.852-0.523,1.17-0.932
		c0.031-0.041,0.063-0.084,0.094-0.127c0.031-0.047,0.061-0.088,0.092-0.127c0.154-0.24,0.264-0.502,0.332-0.785
		c0.066-0.283,0.113-0.664,0.145-1.143h-3.496v-1.254h4.898v5.779h-1.002l-0.354-1.33c-0.041,0.051-0.082,0.098-0.123,0.143
		s-0.076,0.088-0.107,0.127c-0.482,0.488-0.982,0.832-1.494,1.031c-0.516,0.199-1.125,0.299-1.834,0.299
		c-1.572,0-2.826-0.504-3.768-1.51c-0.939-1.006-1.408-2.354-1.408-4.047c0-1.752,0.482-3.145,1.447-4.182
		c0.965-1.035,2.264-1.553,3.898-1.553c1.252,0,2.277,0.297,3.072,0.889c0.797,0.592,1.313,1.49,1.549,2.695V149.242z
		 M222.035,145.867h1.756l5.115,8.557v-8.557h1.57v10.885h-1.74l-5.131-8.615v8.615h-1.57V145.867z M199.836,145.867h1.57v10.885
		h-1.57V145.867z M172.337,147.24v3.51h2.928c0.688,0.01,1.291-0.078,1.809-0.262c0.52-0.184,0.779-0.68,0.779-1.486
		c0-0.773-0.246-1.26-0.74-1.461c-0.492-0.201-1.066-0.301-1.725-0.301H172.337z M170.766,145.867h4.667
		c0.781,0.01,1.369,0.049,1.765,0.119c0.396,0.068,0.747,0.209,1.056,0.418c0.012,0.01,0.021,0.018,0.031,0.021
		c0.01,0.006,0.02,0.014,0.031,0.023c0.379,0.258,0.666,0.594,0.862,1.008c0.194,0.412,0.292,0.883,0.292,1.41
		c0,0.629-0.128,1.141-0.385,1.539s-0.657,0.717-1.202,0.955c0.555,0.189,0.927,0.451,1.118,0.785
		c0.189,0.334,0.284,0.898,0.284,1.693v1.225c0,0.32,0.038,0.617,0.116,0.896c0.076,0.279,0.208,0.543,0.393,0.791h-1.85
		c-0.062-0.219-0.112-0.414-0.153-0.588c-0.042-0.176-0.071-0.342-0.093-0.502c0-0.068-0.002-0.143-0.008-0.215
		c-0.005-0.076-0.008-0.152-0.008-0.232v-1.389c0-0.777-0.215-1.252-0.646-1.426c-0.432-0.176-0.996-0.262-1.695-0.262h-3.004v4.613
		h-1.571V145.867z M146.441,147.509l-1.725,4.764h3.373L146.441,147.509z M145.671,145.867h1.663l4.021,10.885h-1.693l-1.141-3.238
		h-4.297l-1.203,3.238h-1.664L145.671,145.867z M114.352,145.867h8.088v1.373h-6.517v3.195h6.022v1.375h-6.022v3.568h6.594v1.373
		h-8.165V145.867z M87.715,147.24v3.15h2.651c0.708,0.012,1.226-0.107,1.556-0.35c0.328-0.244,0.492-0.631,0.492-1.158
		c0-0.592-0.17-1.016-0.508-1.268c-0.34-0.25-0.899-0.375-1.679-0.375H87.715z M87.715,151.765v3.613h2.527
		c0.01,0.01,0.018,0.016,0.023,0.016h0.022c0.657,0,1.259-0.105,1.804-0.316c0.543-0.209,0.815-0.705,0.815-1.484
		c0-0.758-0.254-1.254-0.763-1.482c-0.508-0.232-1.086-0.346-1.732-0.346H87.715z M86.145,145.867h4.128
		c0.698,0.01,1.241,0.057,1.625,0.141c0.386,0.086,0.728,0.242,1.026,0.471c0.357,0.26,0.633,0.58,0.822,0.963
		c0.19,0.385,0.285,0.795,0.285,1.232c0,0.547-0.121,1.004-0.361,1.367c-0.242,0.363-0.614,0.645-1.117,0.844
		c0.637,0.188,1.124,0.535,1.464,1.037c0.339,0.502,0.509,1.072,0.509,1.709c0,0.539-0.105,1.027-0.316,1.465
		s-0.512,0.795-0.902,1.074c-0.318,0.219-0.684,0.371-1.101,0.457c-0.416,0.084-1.015,0.125-1.794,0.125h-4.268V145.867z"/>
	<path fill-rule="evenodd" clip-rule="evenodd" d="M79.95,106.158c-15.132,0-27.397-12.416-27.397-27.732
		S64.818,50.693,79.95,50.693c0.109,0,0.218,0.002,0.327,0.004v13.67c-0.109-0.002-0.218-0.004-0.327-0.004
		c-7.672,0-13.893,6.295-13.893,14.063c0,7.766,6.221,14.061,13.893,14.061c0.109,0,0.218-0.002,0.327-0.004v13.672
		C80.167,106.154,80.059,106.158,79.95,106.158L79.95,106.158z"/>
	<path d="M25.152,78.423c0,30.629,24.53,55.469,54.8,55.469c0.11,0,0.22-0.01,0.33-0.01v4.131c-0.11,0-0.22,0.01-0.33,0.01
		c-32.52,0-58.88-26.689-58.88-59.6s26.36-59.59,58.88-59.59h0.33v4.129h-0.33C49.682,22.962,25.152,47.792,25.152,78.423z"/>
	<polygon points="291.432,75.233 291.432,138.212 213.012,138.212 224.301,138.173 289.771,81.203 289.781,75.233 	"/>
	<path d="M86.622,75.233v62.979h126.39l72.32-62.969l4.449-0.011H86.622z M123.492,99.642h-12.61v18.551h-6.89v-18.6h-12.6v-5.881
		h19.49v0.031h12.61V99.642z M158.632,104.904c0,1.09-0.29,2.01-0.86,2.75c-0.58,0.75-1.54,1.119-2.89,1.119l-22.21-0.039v1.199
		c0,0.609,0.23,1.18,0.7,1.699c0.47,0.531,0.98,0.791,1.52,0.791h23.36v5.77h-24.67c-1.63,0-3.05-0.439-4.25-1.301
		c-1.2-0.879-2.12-1.889-2.74-3.049c-0.62-1.15-0.93-2.1-0.93-2.84v-10.611c0-0.809,0.22-1.619,0.67-2.43
		c0.45-0.799,1.04-1.52,1.78-2.17c0.73-0.65,1.5-1.16,2.31-1.529c0.81-0.359,1.56-0.551,2.25-0.551h20.16
		c0.58,0,1.22,0.18,1.93,0.541c0.71,0.359,1.36,0.799,1.94,1.33c0.58,0.539,1.04,1.109,1.4,1.709c0.35,0.6,0.53,1.17,0.53,1.711
		V104.904z M188.842,118.193h-18.8c-1.95,0-3.58-0.4-4.88-1.209c-1.3-0.811-2.24-1.771-2.83-2.891c-0.59-1.121-0.88-2.17-0.88-3.16
		v-10.371c0-1.109,0.37-2.189,1.13-3.25c0.76-1.059,1.66-1.92,2.72-2.578c1.05-0.65,1.93-0.98,2.64-0.98h20.76v5.73h-16.24
		c-0.61,0-1.22,0.18-1.83,0.559c-0.6,0.371-1.1,0.84-1.48,1.4c-0.39,0.551-0.58,1.07-0.58,1.561v5.73c0,0.549,0.15,1.078,0.44,1.6
		c0.3,0.52,0.72,0.959,1.27,1.309c0.56,0.342,1.17,0.521,1.84,0.521h16.72V118.193z M199.042,117.693h-6.89v-24.41h6.89V117.693z
		 M220.252,117.693h-7.021v-9.221h-12.97v-5.93h12.97v-9.33h7.021V117.693z"/>
	<path d="M151.782,101.302l-0.04,1.84h-19.07v-1.01c0-0.629,0.25-1.229,0.75-1.77c0.51-0.551,1.07-0.82,1.69-0.82l14.58,0.041
		c0.54,0,1.01,0.15,1.45,0.469C151.562,100.373,151.782,100.792,151.782,101.302z"/>
	<path d="M79.952,45.973h0.33v-20.65h-0.33c-28.98,0-52.47,23.771-52.47,53.101s23.49,53.109,52.47,53.109
		c0.11,0,0.22-0.01,0.33-0.01v-20.65h-0.33c-17.71,0-32.06-14.529-32.06-32.449S62.242,45.973,79.952,45.973z M41.162,54.903
		c3.11,0,5.63,2.53,5.63,5.66c0,3.12-2.52,5.66-5.63,5.66c-3.11,0-5.64-2.54-5.64-5.66C35.522,57.433,38.052,54.903,41.162,54.903z
		 M32.042,80.802c0-3.129,2.52-5.659,5.63-5.659c3.12,0,5.64,2.53,5.64,5.659c0,3.121-2.52,5.66-5.64,5.66
		C34.562,86.462,32.042,83.923,32.042,80.802z M72.822,114.212c3.12,0,5.64,2.541,5.64,5.66c0,3.131-2.52,5.67-5.64,5.67
		c-3.11,0-5.63-2.539-5.63-5.67C67.192,116.753,69.712,114.212,72.822,114.212z M56.402,107.363c3.12,0,5.64,2.529,5.64,5.66
		c0,3.119-2.52,5.66-5.64,5.66c-3.11,0-5.63-2.541-5.63-5.66C50.772,109.892,53.292,107.363,56.402,107.363z M48.442,98.654
		c0,3.119-2.53,5.658-5.64,5.658s-5.63-2.539-5.63-5.658c0-3.131,2.52-5.66,5.63-5.66S48.442,95.523,48.442,98.654z M70.732,31.244
		c3.11,0,5.64,2.539,5.64,5.659c0,3.13-2.53,5.66-5.64,5.66c-3.11,0-5.63-2.53-5.63-5.66C65.102,33.783,67.622,31.244,70.732,31.244
		z M48.552,45.533c0-3.13,2.52-5.66,5.63-5.66c3.11,0,5.64,2.53,5.64,5.66c0,3.12-2.53,5.66-5.64,5.66
		C51.072,51.193,48.552,48.653,48.552,45.533z"/>
</g>
</svg>
