<svg width="55" height="55" viewBox="0 0 55 55" fill="none" xmlns="http://www.w3.org/2000/svg">
<path fill-rule="evenodd" clip-rule="evenodd" d="M20.4154 27.5846V54.3231C20.4154 54.6615 20.7538 55 21.0923 55H31.0769C31.4154 55 31.7538 54.6615 31.7538 54.3231V27.2462H39.0308C39.3692 27.2462 39.7077 26.9077 39.7077 26.5692L40.3846 18.4462C40.3846 18.1077 40.0462 17.7692 39.7077 17.7692H31.7538V12.0154C31.7538 10.6615 32.9385 9.47692 34.2923 9.47692H39.8769C40.2154 9.47692 40.5538 9.13846 40.5538 8.8V0.676922C40.5538 0.338461 40.2154 0 39.8769 0H30.5692C24.9846 0 20.5846 4.4 20.5846 9.98461V17.9385H15.6769C15.3385 17.9385 15 18.2769 15 18.6154V26.7385C15 27.0769 15.3385 27.4154 15.6769 27.4154H20.4154V27.5846Z" fill="white"/>
</svg>
