<svg width="55" height="55" viewBox="0 0 55 55" fill="none" xmlns="http://www.w3.org/2000/svg">
<g clip-path="url(#clip0)">
<path d="M54.9864 54.9999V54.9976H55.0001V34.8263C55.0001 24.9584 52.8758 17.3569 41.3395 17.3569C35.7937 17.3569 32.072 20.4003 30.5526 23.2855H30.3922V18.2782H19.4541V54.9976H30.8437V36.8155C30.8437 32.0282 31.7512 27.399 37.6797 27.399C43.5212 27.399 43.6083 32.8624 43.6083 37.1226V54.9999H54.9864Z" fill="white"/>
<path d="M0.907227 18.2808H12.3106V55.0001H0.907227V18.2808Z" fill="white"/>
<path d="M6.60458 0C2.95854 0 0 2.95854 0 6.60458C0 10.2506 2.95854 13.271 6.60458 13.271C10.2506 13.271 13.2092 10.2506 13.2092 6.60458C13.2069 2.95854 10.2483 0 6.60458 0V0Z" fill="white"/>
</g>
<defs>
<clipPath id="clip0">
<rect width="55" height="55" fill="white"/>
</clipPath>
</defs>
</svg>
