<svg width="55" height="55" viewBox="0 0 55 55" fill="none" xmlns="http://www.w3.org/2000/svg">
<path d="M14.3342 31.6239L18.5403 46.0711L20.3691 47.717L47.4347 12.7877L45.6059 11.3247L12.1396 24.8575L14.3342 31.6239Z" fill="#DDDDDD"/>
<path d="M27.3187 32.7217C26.9529 32.7217 21.2838 34.9162 21.2838 34.9162L20.1865 47.3517C20.1865 47.7175 20.5523 47.9004 20.918 47.7175L30.4276 39.4881L27.3187 32.7217Z" fill="#EEEEEE"/>
<path d="M45.6055 47.9001C47.6171 38.7563 52.3719 17.3599 54.5664 8.03319C54.9322 6.20444 53.1034 4.55855 51.2746 5.10718L1.34953 23.7605C-0.479233 24.492 -0.479232 27.2352 1.5324 27.7838L14.3337 31.6242L43.5939 12.788C44.3254 12.2393 45.0569 13.1537 44.5082 13.7023L21.283 34.7331L41.0336 49.3631C42.6795 50.6433 45.0569 49.9118 45.6055 47.9001Z" fill="white"/>
</svg>
