<svg width="55" height="55" viewBox="0 0 55 55" fill="none" xmlns="http://www.w3.org/2000/svg">
<path d="M54.5759 10.3301C52.8566 11.1898 50.9652 11.5337 49.0739 11.8776C49.9336 11.7056 51.3091 10.1582 51.8249 9.47042C52.6846 8.43878 53.3724 7.40715 53.7162 6.20357C53.7162 6.03163 53.7162 6.03164 53.7162 5.8597C53.5443 5.8597 53.5443 5.8597 53.3724 5.8597C51.3091 7.06327 49.0739 7.75103 46.8387 8.43879C46.6667 8.43879 46.4948 8.43878 46.3229 8.26685C46.1509 8.09491 45.979 7.92297 45.807 7.75103C44.7754 6.89133 43.7438 6.20357 42.7121 5.8597C41.1647 5.17194 39.4453 5 37.8978 5C36.3504 5.17194 34.631 5.51582 33.2555 6.37551C31.88 7.06327 30.5045 8.0949 29.4728 9.47042C28.4412 10.8459 27.5815 12.2214 27.2376 13.9408C26.8937 15.4883 26.8937 17.0357 27.0657 18.5832C27.0657 18.9271 27.0657 18.9271 26.8937 18.9271C17.9529 17.5516 10.3876 14.2847 4.3697 7.40715C4.02582 7.06327 4.02582 7.06327 3.68194 7.40715C1.10285 11.3618 2.30643 17.7235 5.57327 20.9903C6.08909 21.3342 6.43297 21.85 6.94879 22.1939C6.77685 22.1939 4.54164 22.022 2.65031 20.9903C2.30643 20.8184 2.30643 20.9903 2.30643 21.1623C2.30643 21.5062 2.30643 22.022 2.30643 22.5378C2.82225 26.4924 5.57327 30.2751 9.35594 31.8225C9.87175 31.9945 10.3876 32.1664 10.7314 32.3383C9.87175 32.1664 9.01206 32.3383 6.43297 32.1664C6.08909 32.1664 5.91715 32.3383 6.08909 32.5103C7.98042 37.6684 11.935 39.2159 15.0299 40.0756C15.3738 40.0756 15.8896 40.0756 16.2335 40.2475C15.2019 41.795 11.7631 42.9986 10.0437 43.5144C7.12073 44.546 3.85388 45.0618 0.758976 44.7179C0.243158 44.7179 0.0712198 44.7179 0.0712198 44.7179C-0.100719 44.7179 0.0712188 44.8899 0.243158 45.0618C0.930915 45.4057 1.44673 45.9215 2.13449 46.2654C4.19776 47.297 6.26103 48.1567 8.3243 48.6725C19.5003 51.7675 32.0519 49.5322 40.4769 41.1072C47.0106 34.5735 49.4178 25.4608 49.4178 16.5199C49.4178 16.176 49.7616 16.0041 50.1055 15.8322C51.8249 14.6286 53.2004 13.0811 54.404 11.3617C54.7479 11.0179 54.7479 10.674 54.7479 10.5021C54.7479 10.1582 54.7479 10.3301 54.5759 10.3301Z" fill="white"/>
</svg>
